<svg width="191" height="148" viewBox="0 0 191 148" fill="none" xmlns="http://www.w3.org/2000/svg">
<g clip-path="url(#clip0_37_1084)">
<path d="M96.0924 125.929C83.2189 125.929 70.7435 121.586 60.7921 113.638C50.8407 105.691 44.029 94.6313 41.5175 82.3443C39.006 70.0574 40.9502 57.3032 47.0188 46.2548C53.0874 35.2064 62.9049 26.5475 74.7985 21.7534C86.6922 16.9593 99.9261 16.3267 112.245 19.9633C124.565 23.5998 135.207 31.2807 142.359 41.697C149.511 52.1134 152.731 64.6208 151.469 77.0881C150.207 89.5554 144.542 101.211 135.439 110.07C130.284 115.114 124.152 119.112 117.398 121.835C110.644 124.557 103.403 125.949 96.0924 125.929V125.929ZM96.0924 18.0477C65.646 18.0477 40.8759 42.1522 40.8759 71.7805C40.8759 101.409 65.646 125.513 96.0924 125.513C126.539 125.513 151.309 101.409 151.309 71.7805C151.309 42.1522 126.539 18.0477 96.0924 18.0477V18.0477Z" fill="#CCCCCC"/>
<path d="M116.754 134.05V79.4978H75.0309V134.05H116.754Z" fill="#2F2E41"/>
<path d="M123.922 77.832H67.863V99.4863H123.922V77.832Z" fill="#3F3D56"/>
<path d="M123.922 101.985H67.863V123.639H123.922V101.985Z" fill="#3F3D56"/>
<path d="M123.922 126.138H67.863V147.792H123.922V126.138Z" fill="#3F3D56"/>
<path d="M123.922 87.0135H67.863V90.345H123.922V87.0135Z" fill="#6C63FF"/>
<path d="M123.922 111.166H67.863V114.498H123.922V111.166Z" fill="#6C63FF"/>
<path d="M123.922 135.319H67.863V138.651H123.922V135.319Z" fill="#6C63FF"/>
<path d="M113.009 82.2046C113.718 82.2046 114.293 81.6453 114.293 80.9553C114.293 80.2654 113.718 79.7061 113.009 79.7061C112.3 79.7061 111.726 80.2654 111.726 80.9553C111.726 81.6453 112.3 82.2046 113.009 82.2046Z" fill="#6C63FF"/>
<path d="M117.502 82.2045C118.211 82.2045 118.786 81.6452 118.786 80.9552C118.786 80.2653 118.211 79.7059 117.502 79.7059C116.793 79.7059 116.219 80.2653 116.219 80.9552C116.219 81.6452 116.793 82.2045 117.502 82.2045Z" fill="#6C63FF"/>
<path d="M121.996 82.2046C122.705 82.2046 123.28 81.6453 123.28 80.9553C123.28 80.2654 122.705 79.7061 121.996 79.7061C121.287 79.7061 120.712 80.2654 120.712 80.9553C120.712 81.6453 121.287 82.2046 121.996 82.2046Z" fill="#6C63FF"/>
<path d="M113.009 105.941C113.718 105.941 114.293 105.382 114.293 104.692C114.293 104.002 113.718 103.442 113.009 103.442C112.3 103.442 111.726 104.002 111.726 104.692C111.726 105.382 112.3 105.941 113.009 105.941Z" fill="#6C63FF"/>
<path d="M117.502 105.941C118.211 105.941 118.786 105.382 118.786 104.692C118.786 104.002 118.211 103.442 117.502 103.442C116.793 103.442 116.219 104.002 116.219 104.692C116.219 105.382 116.793 105.941 117.502 105.941Z" fill="#6C63FF"/>
<path d="M121.996 105.941C122.705 105.941 123.28 105.382 123.28 104.692C123.28 104.002 122.705 103.442 121.996 103.442C121.287 103.442 120.712 104.002 120.712 104.692C120.712 105.382 121.287 105.941 121.996 105.941Z" fill="#6C63FF"/>
<path d="M113.009 129.677C113.718 129.677 114.293 129.118 114.293 128.428C114.293 127.738 113.718 127.179 113.009 127.179C112.3 127.179 111.726 127.738 111.726 128.428C111.726 129.118 112.3 129.677 113.009 129.677Z" fill="#6C63FF"/>
<path d="M117.502 129.677C118.211 129.677 118.786 129.118 118.786 128.428C118.786 127.738 118.211 127.179 117.502 127.179C116.793 127.179 116.219 127.738 116.219 128.428C116.219 129.118 116.793 129.677 117.502 129.677Z" fill="#6C63FF"/>
<path d="M121.996 129.677C122.705 129.677 123.28 129.118 123.28 128.428C123.28 127.738 122.705 127.179 121.996 127.179C121.287 127.179 120.712 127.738 120.712 128.428C120.712 129.118 121.287 129.677 121.996 129.677Z" fill="#6C63FF"/>
<path d="M190.892 147.584H0.892334V148H190.892V147.584Z" fill="#3F3D56"/>
<path d="M52.6456 56.4396V95.1657C52.6454 95.9759 52.3146 96.7528 51.7259 97.3257C51.1372 97.8986 50.3388 98.2205 49.5063 98.2207H34.0413C33.2085 98.2208 32.4098 97.899 31.8209 97.3261C31.2319 96.7532 30.9009 95.9761 30.9006 95.1657V56.4396C30.9009 55.6292 31.2319 54.8521 31.8209 54.2792C32.4098 53.7063 33.2085 53.3845 34.0413 53.3846H35.9173C35.8252 53.6051 35.7901 53.8442 35.8152 54.0809C35.8403 54.3176 35.9247 54.5447 36.0611 54.7422C36.1975 54.9398 36.3817 55.1017 36.5974 55.2137C36.8132 55.3257 37.0539 55.3845 37.2985 55.3848H46.1156C46.3601 55.3845 46.6008 55.3257 46.8166 55.2137C47.0323 55.1017 47.2165 54.9398 47.3529 54.7422C47.4893 54.5447 47.5737 54.3176 47.5988 54.0809C47.6239 53.8442 47.5888 53.6051 47.4967 53.3846H49.5063C50.3388 53.3848 51.1372 53.7067 51.7259 54.2796C52.3146 54.8525 52.6454 55.6294 52.6456 56.4396V56.4396Z" fill="#E6E6E6"/>
<path d="M51.6156 60.7799H31.9309V87.4313H51.6156V60.7799Z" fill="white"/>
<path d="M45.3765 79.1063H37.5198V79.5432H45.3765V79.1063Z" fill="#E6E6E6"/>
<path d="M49.6688 80.7104H37.512V81.1473H49.6688V80.7104Z" fill="#6C63FF"/>
<path d="M47.0523 82.2218H37.512V82.6587H47.0523V82.2218Z" fill="#E6E6E6"/>
<path d="M43.1239 83.7332H37.512V84.17H43.1239V83.7332Z" fill="#E6E6E6"/>
<path d="M45.9299 85.2445H37.512V85.6814H45.9299V85.2445Z" fill="#E6E6E6"/>
<path d="M34.8547 78.9807H33.9568V79.8545H34.8547V78.9807Z" fill="#E6E6E6"/>
<path d="M34.8547 80.4919H33.9568V81.3657H34.8547V80.4919Z" fill="#6C63FF"/>
<path d="M34.8547 82.0033H33.9568V82.8771H34.8547V82.0033Z" fill="#E6E6E6"/>
<path d="M34.8547 83.5146H33.9568V84.3884H34.8547V83.5146Z" fill="#E6E6E6"/>
<path d="M34.8547 85.026H33.9568V85.8998H34.8547V85.026Z" fill="#E6E6E6"/>
<path d="M45.7709 64.1113H37.8547V71.8147H45.7709V64.1113Z" fill="#E6E6E6"/>
<path d="M122.209 0.0291748H69.5984V32.8177H122.209V0.0291748Z" fill="#E6E6E6"/>
<path d="M117.183 9.20227H73.5645V25.2421H117.183V9.20227Z" fill="white"/>
<path d="M91.9803 11.9811H81.5117V12.5632H91.9803V11.9811Z" fill="#E6E6E6"/>
<path d="M97.6995 14.1185H81.5012V14.7007H97.6995V14.1185Z" fill="#6C63FF"/>
<path d="M94.2131 16.1323H81.5012V16.7145H94.2131V16.1323Z" fill="#E6E6E6"/>
<path d="M88.9788 18.1461H81.5012V18.7282H88.9788V18.1461Z" fill="#E6E6E6"/>
<path d="M92.7176 20.1599H81.5012V20.742H92.7176V20.1599Z" fill="#E6E6E6"/>
<path d="M77.9606 11.8137H76.7642V12.978H77.9606V11.8137Z" fill="#E6E6E6"/>
<path d="M77.9606 13.8275H76.7642V14.9918H77.9606V13.8275Z" fill="#6C63FF"/>
<path d="M77.9606 15.8413H76.7642V17.0056H77.9606V15.8413Z" fill="#E6E6E6"/>
<path d="M77.9606 17.855H76.7642V19.0192H77.9606V17.855Z" fill="#E6E6E6"/>
<path d="M77.9606 19.8688H76.7642V21.033H77.9606V19.8688Z" fill="#E6E6E6"/>
<path d="M115.043 11.2119H104.332V21.6348H115.043V11.2119Z" fill="#E6E6E6"/>
<path d="M122.186 0.00012207H69.5759V2.17513H122.186V0.00012207Z" fill="#6C63FF"/>
<path d="M71.237 1.54873C71.4848 1.54873 71.6856 1.35326 71.6856 1.11213C71.6856 0.871008 71.4848 0.675537 71.237 0.675537C70.9892 0.675537 70.7883 0.871008 70.7883 1.11213C70.7883 1.35326 70.9892 1.54873 71.237 1.54873Z" fill="white"/>
<path d="M72.8092 1.54873C73.057 1.54873 73.2579 1.35326 73.2579 1.11213C73.2579 0.871008 73.057 0.675537 72.8092 0.675537C72.5615 0.675537 72.3606 0.871008 72.3606 1.11213C72.3606 1.35326 72.5615 1.54873 72.8092 1.54873Z" fill="white"/>
<path d="M74.3818 1.54873C74.6295 1.54873 74.8304 1.35326 74.8304 1.11213C74.8304 0.871008 74.6295 0.675537 74.3818 0.675537C74.134 0.675537 73.9331 0.871008 73.9331 1.11213C73.9331 1.35326 74.134 1.54873 74.3818 1.54873Z" fill="white"/>
<path d="M157.439 61.3832H144.601V67.8378H157.439V61.3832Z" fill="#E6E6E6"/>
<path d="M157.439 84.4949H144.601V90.9495H157.439V84.4949Z" fill="#E6E6E6"/>
<path d="M151.02 86.577C156.928 86.577 161.718 81.916 161.718 76.1663C161.718 70.4166 156.928 65.7556 151.02 65.7556C145.111 65.7556 140.322 70.4166 140.322 76.1663C140.322 81.916 145.111 86.577 151.02 86.577Z" fill="#E6E6E6"/>
<path d="M151.02 84.2867C155.629 84.2867 159.365 80.6511 159.365 76.1664C159.365 71.6816 155.629 68.046 151.02 68.046C146.412 68.046 142.676 71.6816 142.676 76.1664C142.676 80.6511 146.412 84.2867 151.02 84.2867Z" fill="white"/>
<path d="M154.759 73.9414H148.287V74.3013H154.759V73.9414Z" fill="#E2E2E2"/>
<path d="M158.294 75.2628H148.281V75.6227H158.294V75.2628Z" fill="#6C63FF"/>
<path d="M156.139 76.5078H148.281V76.8677H156.139V76.5078Z" fill="#E2E2E2"/>
<path d="M152.903 77.7527H148.281V78.1126H152.903V77.7527Z" fill="#E2E2E2"/>
<path d="M155.215 78.9976H148.281V79.3574H155.215V78.9976Z" fill="#E2E2E2"/>
<path d="M146.092 73.838H145.352V74.5578H146.092V73.838Z" fill="#E2E2E2"/>
<path d="M146.092 75.0829H145.352V75.8026H146.092V75.0829Z" fill="#6C63FF"/>
<path d="M146.092 76.3278H145.352V77.0475H146.092V76.3278Z" fill="#E2E2E2"/>
<path d="M146.092 77.5728H145.352V78.2925H146.092V77.5728Z" fill="#E2E2E2"/>
<path d="M146.092 78.8176H145.352V79.5374H146.092V78.8176Z" fill="#E2E2E2"/>
</g>
<defs>
<clipPath id="clip0_37_1084">
<rect width="190" height="148" fill="white" transform="translate(0.892334 0.00012207)"/>
</clipPath>
</defs>
</svg>
