<svg width="75" height="75" viewBox="0 0 75 75" fill="none" xmlns="http://www.w3.org/2000/svg">
<path d="M13.8329 63.7523L8.56885 4.6875H66.4313L61.1603 63.743L37.4649 70.3125L13.8329 63.7523Z" fill="#1572B6"/>
<path d="M37.5 65.2922L56.6484 59.9836L61.1531 9.51794H37.5V65.2922Z" fill="#33A9DC"/>
<path d="M37.5 30.9164H47.0859L47.7469 23.4984H37.5V16.2539H55.6641L55.4906 18.1969L53.7117 38.1609H37.5V30.9164Z" fill="white"/>
<path d="M37.5445 49.7297L37.5117 49.7391L29.4445 47.5594L28.9289 41.782H21.6562L22.6711 53.1563L37.5094 57.2766L37.5445 57.2672V49.7297Z" fill="#EBEBEB"/>
<path d="M46.4696 37.8539L45.5977 47.5547L37.5188 49.7344V57.2719L52.3688 53.1562L52.479 51.9328L53.7375 37.8539H46.4696Z" fill="white"/>
<path d="M37.5258 16.2539V23.4984H20.0274L19.8821 21.8695L19.5516 18.1969L19.3782 16.2539H37.5258ZM37.5 30.9164V38.1609H29.5336L29.3883 36.532L29.0602 32.8594L28.8868 30.9164H37.5Z" fill="#EBEBEB"/>
</svg>
