<svg width="190" height="148" viewBox="0 0 190 148" fill="none" xmlns="http://www.w3.org/2000/svg">
<path d="M186.626 29.4754L25.912 0.0443779C25.5848 -0.0184937 25.2483 -0.0145234 24.9227 0.0560482C24.6273 0.120698 24.3501 0.250136 24.1109 0.435005C23.8772 0.61725 23.6891 0.851404 23.5616 1.11891C23.4259 1.40783 23.3569 1.72352 23.3597 2.04266V145.956C23.3567 146.275 23.4255 146.591 23.561 146.88C23.6883 147.147 23.8761 147.382 24.1097 147.564C24.3487 147.749 24.6258 147.879 24.9211 147.944C25.2467 148.014 25.5832 148.019 25.9104 147.956L186.626 118.525C186.759 118.497 186.883 118.435 186.984 118.343C187.101 118.238 187.2 118.114 187.275 117.975C187.361 117.817 187.427 117.648 187.47 117.472C187.518 117.281 187.542 117.085 187.542 116.889V31.1162C187.542 30.919 187.518 30.7226 187.471 30.5312C187.428 30.3557 187.362 30.1866 187.275 30.0282C187.2 29.8894 187.101 29.7647 186.984 29.6597C186.883 29.5684 186.76 29.5057 186.627 29.4782L186.626 29.4754Z" fill="#E4E4E4"/>
<path d="M189.084 29.4754L28.3697 0.0443779C28.0426 -0.0184937 27.706 -0.0145234 27.3804 0.0560482C27.0851 0.120698 26.8078 0.250136 26.5687 0.435005C26.3349 0.61725 26.1468 0.851404 26.0193 1.11891C25.8837 1.40783 25.8147 1.72352 25.8175 2.04266V145.956C25.8145 146.275 25.8833 146.591 26.0187 146.88C26.146 147.147 26.3339 147.382 26.5675 147.564C26.8065 147.749 27.0836 147.879 27.3789 147.944C27.7044 148.014 28.041 148.019 28.3682 147.956L189.084 118.525C189.217 118.497 189.341 118.435 189.441 118.343C189.559 118.238 189.657 118.114 189.732 117.975C189.819 117.817 189.885 117.648 189.928 117.472C189.976 117.281 190 117.085 190 116.889V31.1162C190 30.919 189.976 30.7226 189.928 30.5312C189.885 30.3557 189.82 30.1866 189.733 30.0282C189.658 29.8894 189.559 29.7647 189.442 29.6597C189.341 29.5684 189.218 29.5057 189.084 29.4782L189.084 29.4754Z" fill="white"/>
<path d="M189.084 29.4754L28.3697 0.0443779C28.0426 -0.0184937 27.706 -0.0145234 27.3804 0.0560482C27.0851 0.120698 26.8078 0.250136 26.5687 0.435005C26.3349 0.61725 26.1468 0.851404 26.0193 1.11891C25.8837 1.40783 25.8147 1.72352 25.8175 2.04266V145.956C25.8145 146.275 25.8833 146.591 26.0187 146.88C26.146 147.147 26.3339 147.382 26.5675 147.564C26.8065 147.749 27.0836 147.879 27.3789 147.944C27.7044 148.014 28.041 148.019 28.3682 147.956L189.084 118.525C189.217 118.497 189.341 118.435 189.441 118.343C189.559 118.238 189.657 118.114 189.732 117.975C189.819 117.817 189.885 117.648 189.928 117.472C189.976 117.281 190 117.085 190 116.889V31.1162C190 30.919 189.976 30.7226 189.928 30.5312C189.885 30.3557 189.82 30.1866 189.733 30.0282C189.658 29.8894 189.559 29.7647 189.442 29.6597C189.341 29.5684 189.218 29.5057 189.084 29.4782L189.084 29.4754ZM189.695 116.941C189.695 117.072 189.679 117.203 189.648 117.331C189.619 117.448 189.575 117.561 189.517 117.667C189.467 117.759 189.401 117.843 189.323 117.913C189.256 117.973 189.173 118.015 189.085 118.033L28.3713 147.137C28.1532 147.179 27.9291 147.176 27.7122 147.128C27.5158 147.085 27.3314 146.998 27.1724 146.875C27.017 146.753 26.8921 146.597 26.8074 146.419C26.7174 146.227 26.6717 146.017 26.6735 145.805V2.1956C26.6716 1.98346 26.7173 1.7736 26.8071 1.5814C26.8916 1.40308 27.0165 1.24685 27.1718 1.12506C27.3306 1.00163 27.5149 0.914985 27.7113 0.871393C27.9281 0.823776 28.1523 0.820536 28.3704 0.861871L189.085 29.9674C189.173 29.9855 189.256 30.0271 189.323 30.0878C189.401 30.1578 189.467 30.2409 189.517 30.3334C189.575 30.439 189.619 30.5518 189.648 30.6688C189.68 30.7965 189.696 30.9277 189.696 31.0594V116.94L189.695 116.941Z" fill="#CACACA"/>
<path d="M0.000208118 44.9187C-0.00752322 43.9369 0.200241 42.9654 0.60886 42.0725C0.990751 41.2478 1.55512 40.5205 2.25937 39.9456C2.96828 39.3708 3.7959 38.9604 4.68261 38.7439C5.64193 38.5126 6.63882 38.4826 7.61034 38.6558C8.62932 38.8331 9.60709 39.1959 10.4951 39.726C11.3723 40.2477 12.1576 40.9103 12.8194 41.6871C13.4756 42.4529 13.9999 43.3224 14.3709 44.26C14.7407 45.1904 14.9327 46.1818 14.9369 47.183C14.9438 48.1297 14.7509 49.0673 14.3709 49.9346C14.0141 50.7405 13.4844 51.4582 12.8194 52.0369C12.1453 52.6199 11.3521 53.0487 10.4951 53.2936C9.55749 53.5582 8.5751 53.6249 7.61034 53.4895V53.4895C6.58266 53.348 5.59034 53.0164 4.68414 52.5117C3.77369 52.0068 2.9548 51.3522 2.26183 50.5755C1.56593 49.8003 1.00762 48.912 0.611007 47.9489C0.213321 46.9878 0.00589345 45.9587 0.000208118 44.9187V44.9187Z" fill="#E4E4E4"/>
<path d="M0.000208118 74.7072C-0.00752322 73.7254 0.200241 72.7538 0.60886 71.861C0.990751 71.0362 1.55512 70.3089 2.25937 69.734C2.96828 69.1593 3.7959 68.7489 4.68261 68.5324C5.64193 68.3011 6.63882 68.271 7.61034 68.4442C8.62932 68.6216 9.60709 68.9843 10.4951 69.5145C11.3723 70.0362 12.1576 70.6988 12.8194 71.4756C13.4756 72.2414 13.9999 73.1108 14.3709 74.0485C14.7407 74.9789 14.9327 75.9703 14.9369 76.9714C14.9438 77.9182 14.7509 78.8558 14.3709 79.723C14.0141 80.5289 13.4844 81.2467 12.8194 81.8254C12.1453 82.4083 11.3521 82.8372 10.4951 83.082C9.55749 83.3466 8.5751 83.4133 7.61034 83.278V83.278C6.58266 83.1365 5.59034 82.8049 4.68414 82.3002C3.77369 81.7952 2.9548 81.1407 2.26183 80.3639C1.56593 79.5887 1.00762 78.7004 0.611007 77.7373C0.213321 76.7762 0.00589345 75.7472 0.000208118 74.7072Z" fill="#E4E4E4"/>
<path d="M0.000208118 104.496C-0.00752322 103.514 0.200241 102.542 0.60886 101.65C0.990751 100.825 1.55512 100.097 2.25937 99.5226C2.96828 98.9479 3.7959 98.5375 4.68261 98.3209C5.64193 98.0896 6.63882 98.0596 7.61034 98.2328C8.62932 98.4101 9.60709 98.7729 10.4951 99.303C11.3723 99.8248 12.1576 100.487 12.8194 101.264C13.4756 102.03 13.9999 102.899 14.3709 103.837C14.7407 104.767 14.9327 105.759 14.9369 106.76C14.9438 107.707 14.7509 108.644 14.3709 109.512C14.0141 110.318 13.4844 111.035 12.8194 111.614C12.1453 112.197 11.3521 112.626 10.4951 112.871C9.55749 113.135 8.5751 113.202 7.61034 113.067V113.067C6.58266 112.925 5.59034 112.593 4.68414 112.089C3.77369 111.584 2.9548 110.929 2.26183 110.153C1.56593 109.377 1.00762 108.489 0.611007 107.526C0.213321 106.565 0.00589345 105.536 0.000208118 104.496Z" fill="#E4E4E4"/>
<path d="M1.84371 44.9187C1.83598 43.9369 2.04375 42.9654 2.45237 42.0725C2.83426 41.2478 3.39863 40.5205 4.10288 39.9456C4.81178 39.3708 5.6394 38.9604 6.52611 38.7439C7.48544 38.5126 8.48233 38.4826 9.45385 38.6558C10.4728 38.8331 11.4506 39.1959 12.3386 39.726C13.2158 40.2477 14.0011 40.9103 14.6629 41.6871C15.3191 42.4529 15.8434 43.3224 16.2144 44.26C16.5842 45.1904 16.7762 46.1818 16.7804 47.183C16.7873 48.1297 16.5944 49.0673 16.2144 49.9346C15.8576 50.7405 15.3279 51.4582 14.6629 52.0369C13.9888 52.6199 13.1956 53.0487 12.3386 53.2936C11.401 53.5582 10.4186 53.6249 9.45385 53.4895V53.4895C8.42617 53.348 7.43384 53.0164 6.52765 52.5117C5.6172 52.0068 4.79831 51.3522 4.10534 50.5755C3.40943 49.8003 2.85113 48.912 2.45451 47.9489C2.05683 46.9878 1.8494 45.9587 1.84371 44.9187V44.9187Z" fill="#6C63FF"/>
<path d="M1.84383 74.5042C1.83912 73.5079 2.0466 72.5219 2.45248 71.6119C2.8379 70.7547 3.40038 69.9886 4.10299 69.364C4.80577 68.7399 5.6311 68.2692 6.52623 67.982C7.47103 67.6815 8.4675 67.5779 9.45396 67.6777C10.4615 67.7763 11.4408 68.0673 12.3387 68.5348C13.213 68.9895 13.9999 69.5954 14.663 70.3243C15.3215 71.045 15.8468 71.8768 16.2146 72.7811C16.587 73.6972 16.7791 74.6767 16.7802 75.6656C16.7844 76.626 16.5918 77.5771 16.2143 78.4602C15.8522 79.3006 15.3214 80.0578 14.6547 80.6848C13.988 81.3118 13.1996 81.7954 12.3384 82.1055C11.4148 82.4371 10.4331 82.5762 9.45365 82.5142V82.5142C8.43816 82.4518 7.44442 82.1932 6.52746 81.7526C4.69684 80.8729 3.2492 79.3572 2.45494 77.4885C2.05464 76.5443 1.84688 75.5297 1.84383 74.5042V74.5042Z" fill="#6C63FF"/>
<path d="M1.84376 104.09C1.8425 103.099 2.04201 102.117 2.43027 101.205C2.81853 100.293 3.38751 99.4692 4.10292 98.7828C4.98265 97.9409 6.05423 97.3258 7.22508 96.9905C8.39593 96.6553 9.63084 96.61 10.8231 96.8586C12.0154 97.1072 13.1292 97.6423 14.0682 98.4175C15.0073 99.1927 15.7434 100.185 16.213 101.308C16.6745 102.426 16.8551 103.64 16.7389 104.843C16.6227 106.047 16.2133 107.204 15.5465 108.213C14.8796 109.222 13.9757 110.053 12.9136 110.632C11.8515 111.211 10.6637 111.521 9.45389 111.536C7.97281 111.557 6.51834 111.141 5.27312 110.339C4.0279 109.538 3.04744 108.386 2.45486 107.029C2.05182 106.101 1.84381 105.101 1.84376 104.09V104.09Z" fill="#6C63FF"/>
<path d="M6.48565 44.885L8.71687 45.2278V43.0289C8.7158 42.9338 8.73529 42.8395 8.77401 42.7526C8.81023 42.6722 8.8641 42.601 8.93163 42.5443C8.99983 42.4875 9.07979 42.4465 9.16575 42.4243C9.25942 42.4003 9.35704 42.3962 9.45241 42.412C9.55345 42.4283 9.65062 42.4631 9.73907 42.5146C9.82724 42.5657 9.90635 42.6311 9.97318 42.708C10.0399 42.7843 10.0934 42.8712 10.1314 42.9651C10.1694 43.0582 10.1893 43.1578 10.1901 43.2583V45.4541L12.3789 45.7898C12.4783 45.8055 12.574 45.8395 12.661 45.8902C12.8353 45.9914 12.9709 46.1479 13.0462 46.3349C13.0834 46.4273 13.1027 46.526 13.1031 46.6257C13.1038 46.7199 13.0844 46.8132 13.0462 46.8993C13.011 46.9788 12.9585 47.0495 12.8926 47.1063C12.8257 47.163 12.7472 47.2044 12.6625 47.2273C12.5705 47.2518 12.4745 47.2568 12.3804 47.242L10.1886 46.9143V49.1052C10.1893 49.2004 10.1696 49.2946 10.1308 49.3816C10.0945 49.4622 10.0408 49.5339 9.97349 49.5913C9.90553 49.6488 9.82584 49.6907 9.73999 49.7142C9.64671 49.7394 9.54921 49.7451 9.45364 49.7307C9.35271 49.7161 9.2554 49.6827 9.16667 49.6325C9.07841 49.5826 8.99916 49.5182 8.93224 49.4421C8.8654 49.3665 8.81189 49.2801 8.77401 49.1866C8.73634 49.0932 8.71695 48.9934 8.71687 48.8927V46.6939L6.48565 46.3591C6.38315 46.3434 6.28441 46.3089 6.19439 46.2575C6.10481 46.2065 6.02434 46.141 5.95628 46.0637C5.88862 45.9875 5.83429 45.9005 5.79558 45.8063C5.75701 45.7121 5.73698 45.6112 5.73659 45.5094C5.73585 45.4134 5.75598 45.3183 5.79558 45.2308C5.83274 45.1497 5.88765 45.0779 5.95628 45.0208C6.02567 44.9629 6.10696 44.9209 6.19439 44.8979C6.28956 44.8737 6.38871 44.8693 6.48565 44.885V44.885Z" fill="white"/>
<path d="M8.052 77.0608L14.2479 77.5098H14.2706L11.365 72.2369C11.347 72.2038 11.3212 72.1755 11.2897 72.1546C11.2743 72.1443 11.2577 72.136 11.2403 72.1297C11.2227 72.1234 11.2045 72.1194 11.1859 72.1178C11.1678 72.1161 11.1497 72.117 11.1318 72.1202C11.1146 72.1234 11.098 72.129 11.0824 72.1368C11.0511 72.1523 11.0249 72.1765 11.0071 72.2065L9.02996 75.455L8.93472 75.6113L8.052 77.0608Z" fill="white"/>
<path d="M4.51587 76.8045L9.98236 77.2006L8.93466 75.6111L8.85908 75.4962L7.48508 73.4113C7.46075 73.379 7.43039 73.3517 7.39567 73.3309C7.3788 73.3208 7.361 73.3124 7.34252 73.3057C7.3234 73.2989 7.30364 73.294 7.28353 73.2913C7.2641 73.2885 7.24443 73.2878 7.22484 73.2891C7.20581 73.2904 7.18696 73.2937 7.16862 73.2989C7.15057 73.3042 7.13316 73.3114 7.1167 73.3204C7.10014 73.3295 7.08468 73.3404 7.07061 73.353L7.066 73.3585L7.06016 73.364L7.05555 73.3699L7.05094 73.3757L4.51587 76.8045Z" fill="white"/>
<path d="M8.64921 71.3691C8.77518 71.38 8.89788 71.4151 9.01066 71.4723C9.12122 71.5285 9.22094 71.6039 9.30517 71.6949C9.38923 71.7854 9.45641 71.8903 9.50355 72.0045C9.55134 72.12 9.57607 72.2437 9.57633 72.3687C9.57688 72.4898 9.55209 72.6097 9.50355 72.7206C9.45746 72.8256 9.38988 72.9198 9.30517 72.997C9.22002 73.0744 9.11973 73.1333 9.01066 73.1699C8.89436 73.2087 8.77134 73.2232 8.64921 73.2126C8.52308 73.202 8.40016 73.1673 8.28714 73.1103C8.17605 73.0544 8.07581 72.9791 7.9911 72.888C7.90644 72.7974 7.83872 72.6923 7.79118 72.5778C7.74294 72.4618 7.71801 72.3374 7.71778 72.2118C7.71725 72.0902 7.74226 71.9699 7.79118 71.8586C7.83771 71.7535 7.90583 71.6593 7.9911 71.5822C8.07685 71.5052 8.17766 71.4468 8.28714 71.4108C8.4037 71.3723 8.52693 71.3581 8.64921 71.3691V71.3691Z" fill="white"/>
<path d="M75.5095 92.3884L136.86 34.2065L137.123 34.6672L75.893 92.8807L75.5095 92.3884Z" fill="#E6E6E6"/>
<path d="M75.5193 26.4443L75.904 25.9836L137.117 89.4991L136.854 89.9368L75.5193 26.4443Z" fill="#E6E6E6"/>
<path d="M136.239 33.3571L76.6032 25.1681C76.3275 25.1287 76.0464 25.1527 75.7813 25.2381C75.529 25.3213 75.2987 25.4602 75.1075 25.6447C74.9098 25.8355 74.7544 26.0657 74.6513 26.3203C74.5384 26.6012 74.4813 26.9014 74.4832 27.2041V91.3691C74.4823 91.676 74.5393 91.9802 74.6513 92.2659C74.7553 92.5315 74.9102 92.7744 75.1072 92.9808C75.2972 93.1796 75.5267 93.3365 75.781 93.4414C76.0413 93.5478 76.3221 93.5948 76.6029 93.579L136.239 90.2961C136.441 90.283 136.636 90.2196 136.806 90.1119C136.987 89.9979 137.143 89.8497 137.267 89.6755C137.403 89.485 137.508 89.2738 137.577 89.0499C137.653 88.8068 137.692 88.5535 137.691 88.2988V35.4718C137.691 35.214 137.653 34.9577 137.577 34.7111C137.507 34.4797 137.403 34.2602 137.267 34.0601C137.143 33.8755 136.987 33.7148 136.806 33.5856C136.638 33.4657 136.444 33.3874 136.239 33.3571V33.3571ZM76.6032 92.9188C76.4027 92.9296 76.2023 92.8956 76.0167 92.8193C75.8352 92.744 75.6716 92.6316 75.5361 92.4894C75.3955 92.3416 75.2851 92.1679 75.2111 91.9778C75.1313 91.774 75.0907 91.557 75.0912 91.3381V27.2837C75.09 27.0679 75.1307 26.854 75.2111 26.6538C75.2844 26.4717 75.3951 26.3071 75.5361 26.1704C75.6725 26.0389 75.8367 25.9397 76.0167 25.8802C76.2057 25.8188 76.4063 25.8013 76.6032 25.8289L136.239 33.9072C136.385 33.9288 136.524 33.9848 136.645 34.0705C136.774 34.1624 136.886 34.2768 136.975 34.4083C137.072 34.5513 137.147 34.7082 137.197 34.8736C137.251 35.0498 137.278 35.2331 137.278 35.4175V88.3203C137.279 88.5025 137.251 88.6837 137.197 88.8577C137.147 89.0177 137.072 89.1687 136.975 89.3048C136.886 89.4292 136.774 89.535 136.645 89.6162C136.522 89.6927 136.383 89.7373 136.239 89.7461L76.6032 92.9188Z" fill="#E6E6E6"/>
<path d="M74.6278 100.355C74.4692 100.372 74.318 100.431 74.1893 100.525C74.0473 100.629 73.9265 100.76 73.8336 100.909C73.7279 101.077 73.6479 101.259 73.5964 101.449C73.5394 101.658 73.5117 101.873 73.5143 102.089C73.5156 102.296 73.5466 102.501 73.6065 102.699C73.6586 102.873 73.7396 103.037 73.8462 103.184C73.939 103.314 74.0593 103.421 74.1986 103.498C74.33 103.57 74.4791 103.604 74.6287 103.595L179.032 94.9542C179.115 94.9473 179.193 94.9115 179.252 94.8532C179.328 94.7806 179.39 94.6943 179.433 94.5989C179.489 94.4814 179.53 94.3577 179.556 94.2304C179.587 94.0831 179.603 93.9331 179.604 93.7827C179.606 93.6337 179.592 93.485 179.564 93.3389C179.54 93.2147 179.5 93.094 179.446 92.9799C179.404 92.8887 179.344 92.8073 179.269 92.7407C179.209 92.6871 179.131 92.6581 179.05 92.6596H179.032L74.6278 100.355Z" fill="#E6E6E6"/>
<path d="M74.6278 110.188C74.4684 110.21 74.3174 110.273 74.1894 110.37C74.0475 110.478 73.9268 110.611 73.8336 110.763C73.7281 110.932 73.6481 111.117 73.5964 111.309C73.5393 111.519 73.5117 111.735 73.5143 111.953C73.5155 112.159 73.5465 112.363 73.6065 112.56C73.6584 112.733 73.7394 112.894 73.8462 113.039C73.9389 113.166 74.0591 113.27 74.198 113.344C74.3303 113.412 74.4795 113.442 74.6281 113.429L179.032 101.917C179.115 101.907 179.193 101.869 179.252 101.81C179.328 101.735 179.389 101.647 179.433 101.55C179.489 101.431 179.53 101.305 179.556 101.177C179.587 101.029 179.603 100.878 179.604 100.727C179.606 100.579 179.592 100.43 179.564 100.284C179.54 100.161 179.5 100.042 179.446 99.9289C179.404 99.8393 179.344 99.7597 179.268 99.6955C179.208 99.6433 179.129 99.6164 179.049 99.6202H179.031L74.6278 110.188Z" fill="#E6E6E6"/>
<path d="M74.6278 119.863C74.4676 119.889 74.3168 119.956 74.1893 120.057C74.0474 120.168 73.9269 120.305 73.8335 120.459C73.7282 120.631 73.6484 120.817 73.5964 121.012C73.5394 121.222 73.5118 121.439 73.5143 121.657C73.5153 121.862 73.5464 122.066 73.6065 122.262C73.6581 122.432 73.7392 122.592 73.8461 122.734C73.9389 122.859 74.0593 122.959 74.1979 123.029C74.3313 123.094 74.4806 123.12 74.6281 123.102L179.032 108.766C179.116 108.754 179.193 108.714 179.252 108.653C179.328 108.577 179.389 108.487 179.433 108.389C179.489 108.268 179.53 108.142 179.556 108.012C179.587 107.864 179.603 107.713 179.604 107.561C179.606 107.413 179.592 107.265 179.564 107.12C179.54 106.998 179.5 106.879 179.446 106.767C179.404 106.679 179.344 106.601 179.268 106.539C179.207 106.488 179.128 106.463 179.049 106.469H179.031L74.6278 119.863Z" fill="#E6E6E6"/>
<path d="M12.4323 100.974L6.47235 100.903C6.37298 100.899 6.27376 100.913 6.17924 100.944C6.08787 100.974 6.00234 101.019 5.92638 101.078C5.85069 101.137 5.78581 101.208 5.73466 101.289C5.68225 101.372 5.64529 101.464 5.62559 101.56C5.60593 101.675 5.61191 101.793 5.6431 101.906C5.65867 101.962 5.68031 102.016 5.70762 102.067C5.76331 102.172 5.84121 102.264 5.93591 102.336C6.07791 102.443 6.25085 102.502 6.42903 102.504L8.22149 102.52C8.30602 102.52 8.38855 102.546 8.45896 102.592C8.52936 102.639 8.58458 102.705 8.61784 102.783C8.6402 102.836 8.65169 102.892 8.65164 102.949V106.464C8.6472 106.658 8.71188 106.847 8.83414 106.998C8.95648 107.149 9.12826 107.252 9.31928 107.289C9.4924 107.318 9.67026 107.29 9.82563 107.208C9.98101 107.127 10.1053 106.996 10.1796 106.837C10.2284 106.733 10.2538 106.618 10.2539 106.503V102.959C10.254 102.904 10.2649 102.849 10.2861 102.798C10.3073 102.747 10.3384 102.7 10.3775 102.661C10.4166 102.622 10.4631 102.591 10.5142 102.57C10.5653 102.549 10.6201 102.538 10.6754 102.538L10.6794 102.538L12.3917 102.552C12.5829 102.558 12.77 102.496 12.9199 102.377C13.0697 102.258 13.1725 102.09 13.2099 101.903C13.2287 101.789 13.2227 101.673 13.1925 101.562C13.1622 101.451 13.1083 101.348 13.0344 101.26C12.9606 101.172 12.8685 101.101 12.7646 101.051C12.6607 101.002 12.5473 100.975 12.4323 100.974V100.974Z" fill="white"/>
<path d="M144.133 40.3349L84.4965 32.1459C84.2208 32.1065 83.9397 32.1304 83.6746 32.2159C83.4223 32.299 83.192 32.438 83.0008 32.6225C82.8031 32.8133 82.6477 33.0435 82.5446 33.2981C82.4317 33.579 82.3747 33.8792 82.3765 34.1819V98.3469C82.3756 98.6537 82.4327 98.958 82.5446 99.2437C82.6486 99.5093 82.8035 99.7521 83.0005 99.9586C83.1905 100.157 83.42 100.314 83.6743 100.419C83.9346 100.526 84.2154 100.573 84.4962 100.557L144.133 97.2739C144.334 97.2607 144.529 97.1974 144.699 97.0897C144.88 96.9757 145.037 96.8274 145.16 96.6533C145.297 96.4628 145.402 96.2516 145.471 96.0277C145.546 95.7846 145.585 95.5313 145.585 95.2766V42.4496C145.584 42.1918 145.546 41.9355 145.471 41.6889C145.401 41.4575 145.296 41.238 145.16 41.0379C145.037 40.8533 144.88 40.6926 144.699 40.5634C144.531 40.4435 144.337 40.3652 144.133 40.3349Z" fill="#6C63FF"/>
<path opacity="0.2" d="M144.133 40.3349L84.4965 32.1459C84.2208 32.1065 83.9397 32.1304 83.6746 32.2159C83.4223 32.299 83.192 32.438 83.0008 32.6225C82.8031 32.8133 82.6477 33.0435 82.5446 33.2981C82.4317 33.579 82.3747 33.8792 82.3765 34.1819V98.3469C82.3756 98.6537 82.4327 98.958 82.5446 99.2437C82.6486 99.5093 82.8035 99.7521 83.0005 99.9586C83.1905 100.157 83.42 100.314 83.6743 100.419C83.9346 100.526 84.2154 100.573 84.4962 100.557L144.133 97.2739C144.334 97.2607 144.529 97.1974 144.699 97.0897C144.88 96.9757 145.037 96.8274 145.16 96.6533C145.297 96.4628 145.402 96.2516 145.471 96.0277C145.546 95.7846 145.585 95.5313 145.585 95.2766V42.4496C145.584 42.1918 145.546 41.9355 145.471 41.6889C145.401 41.4575 145.296 41.238 145.16 41.0379C145.037 40.8533 144.88 40.6926 144.699 40.5634C144.531 40.4435 144.337 40.3652 144.133 40.3349Z" fill="black"/>
<path d="M146.591 40.3349L86.9545 32.1459C86.6788 32.1065 86.3977 32.1304 86.1326 32.2159C85.8803 32.299 85.65 32.438 85.4588 32.6225C85.2611 32.8133 85.1057 33.0435 85.0026 33.2981C84.8897 33.579 84.8327 33.8792 84.8345 34.1819V98.3469C84.8337 98.6537 84.8907 98.958 85.0026 99.2437C85.1067 99.5093 85.2615 99.7521 85.4585 99.9586C85.6486 100.157 85.8781 100.314 86.1323 100.419C86.3926 100.526 86.6734 100.573 86.9542 100.557L146.591 97.2739C146.792 97.2607 146.987 97.1974 147.157 97.0897C147.338 96.9757 147.495 96.8274 147.618 96.6533C147.755 96.4628 147.86 96.2516 147.929 96.0277C148.004 95.7846 148.043 95.5313 148.043 95.2766V42.4496C148.042 42.1918 148.004 41.9355 147.929 41.6889C147.859 41.4575 147.754 41.238 147.618 41.0379C147.495 40.8533 147.338 40.6926 147.157 40.5634C146.989 40.4435 146.795 40.3652 146.591 40.3349Z" fill="#6C63FF"/>
</svg>
