<svg width="75" height="75" viewBox="0 0 75 75" fill="none" xmlns="http://www.w3.org/2000/svg">
<path d="M13.8328 63.7523L8.56641 4.6875H66.4336L61.1602 63.743L37.4648 70.3125L13.8328 63.7523Z" fill="#E44F26"/>
<path d="M37.5 65.2922L56.6484 59.9836L61.1531 9.51794H37.5V65.2922Z" fill="#F1662A"/>
<path d="M37.5 31.4226H27.9141L27.2531 24.0047H37.5V16.7601H19.3359L19.5094 18.7054L21.2883 38.6672H37.5V31.4226ZM37.5 50.2359L37.4672 50.2453L29.4 48.0679L28.8844 42.2906H21.6117L22.6266 53.6625L37.4672 57.7828L37.5 57.7734V50.2359Z" fill="#EBEBEB"/>
<path d="M37.4741 31.4226V38.6672H46.3944L45.5554 48.0633L37.4741 50.2429V57.7804L52.3265 53.6625L52.4343 52.439L54.1358 33.3679L54.314 31.4226H37.4741ZM37.4741 16.7601V24.0047H54.9726L55.1179 22.3781L55.4483 18.7054L55.6218 16.7601H37.4741Z" fill="white"/>
</svg>
