<svg width="75" height="75" viewBox="0 0 75 75" fill="none" xmlns="http://www.w3.org/2000/svg">
<path d="M4.6875 4.6875H70.3125V70.3125H4.6875V4.6875Z" fill="#F5DE19"/>
<path d="M48.771 55.957C49.3302 57.0928 50.1989 58.0474 51.2771 58.7109C52.3552 59.3744 53.5989 59.7197 54.8648 59.707C57.4195 59.707 59.0531 58.4297 59.0531 56.6601C59.0531 54.5508 57.375 53.7961 54.5625 52.5656L53.0203 51.9047C48.5671 50.0086 45.614 47.6343 45.614 42.614C45.614 37.9898 49.1296 34.4672 54.6445 34.4672C56.4297 34.3382 58.2134 34.7378 59.7731 35.616C61.3327 36.4942 62.5993 37.8121 63.4148 39.4054L58.5937 42.4875C58.2797 41.6974 57.7329 41.0215 57.026 40.5494C56.319 40.0772 55.4852 39.8311 54.6351 39.8437C54.2642 39.8066 53.8897 39.8471 53.5354 39.9627C53.181 40.0784 52.8546 40.2665 52.577 40.5152C52.2994 40.764 52.0767 41.0678 51.923 41.4073C51.7693 41.7469 51.688 42.1148 51.6843 42.4875C51.6843 44.3367 52.8304 45.0867 55.4765 46.2375L57.0187 46.8984C62.2593 49.1461 65.2218 51.4359 65.2218 56.5851C65.2218 62.1375 60.8601 65.1797 55.0031 65.1797C52.721 65.3251 50.4456 64.8069 48.4514 63.6878C46.4572 62.5687 44.8296 60.8963 43.7648 58.8726L48.771 55.957ZM26.9859 56.4914C27.9539 58.2093 28.8351 59.6625 30.9539 59.6625C32.9789 59.6625 34.2585 58.8703 34.2585 55.7882V34.8187H40.4249V55.8703C40.4249 62.2547 36.675 65.1609 31.2164 65.1609C29.2869 65.2664 27.3706 64.7855 25.7195 63.7816C24.0684 62.7776 22.7598 61.2975 21.9656 59.5359L26.9859 56.4914Z" fill="black"/>
</svg>
