<svg width="75" height="75" viewBox="0 0 75 75" fill="none" xmlns="http://www.w3.org/2000/svg">
<g clip-path="url(#clip0_10_24)">
<path d="M37.5 74.8609C36.3354 74.8609 35.2485 74.5858 34.2393 74.1044L23.913 68.6712C22.3603 67.9147 23.1366 67.6396 23.6024 67.5021C25.6986 66.8831 26.0868 66.7456 28.2606 65.645C28.4938 65.5074 28.8044 65.5762 29.037 65.7137L36.9565 69.9091C37.2671 70.0466 37.6553 70.0466 37.8882 69.9091L68.8667 54.0223C69.1772 53.8848 69.3325 53.6097 69.3325 53.2658V21.5605C69.3325 21.2167 69.1772 20.9416 68.8667 20.8041L37.8882 4.98581C37.5776 4.84826 37.1895 4.84826 36.9565 4.98581L5.97803 20.8043C5.66748 20.9419 5.51221 21.2857 5.51221 21.5608V53.2658C5.51221 53.5409 5.66748 53.8848 5.97803 54.0223L14.441 58.3549C19.0219 60.4181 21.8941 58.0111 21.8941 55.6041V24.3114C21.8941 23.8988 22.2826 23.4861 22.8261 23.4861H26.7858C27.2517 23.4861 27.7175 23.83 27.7175 24.3114V55.6038C27.7175 61.037 24.3788 64.2005 18.5558 64.2005C16.7701 64.2005 15.3727 64.2005 11.4132 62.4812L3.26074 58.3549C1.24219 57.3231 0 55.3975 0 53.3343V21.6296C0 19.5664 1.24219 17.6408 3.26074 16.609L34.2393 0.722224C36.1802 -0.240579 38.8198 -0.240579 40.7607 0.722224L71.7393 16.609C73.7578 17.6406 75 19.5662 75 21.6296V53.3346C75 55.3977 73.7578 57.3233 71.7393 58.3549L40.7607 74.2422C39.7515 74.6548 38.5869 74.8611 37.5 74.8611V74.8609ZM47.0496 53.0592C33.4626 53.0592 30.6677 47.5575 30.6677 42.8808C30.6677 42.4682 31.0559 42.0555 31.5993 42.0555H35.6364C36.1022 42.0555 36.4907 42.3306 36.4907 42.7432C37.1118 46.3881 38.8975 48.1765 47.1272 48.1765C53.649 48.1765 56.4442 46.8698 56.4442 43.7751C56.4442 41.9868 55.6679 40.6801 45.4969 39.7858C37.0342 39.0293 31.7546 37.3788 31.7546 31.3957C31.7546 25.8246 37.0339 22.5236 45.8851 22.5236C55.8229 22.5236 60.7143 25.5496 61.3354 32.1519C61.3354 32.3582 61.2577 32.5645 61.1024 32.7708C60.9472 32.9084 60.7143 33.0459 60.4813 33.0459H56.4442C56.0558 33.0459 55.6679 32.7708 55.5899 32.427C54.6583 28.6445 52.2516 27.4067 45.8851 27.4067C38.7425 27.4067 37.8882 29.6073 37.8882 31.2579C37.8882 33.2525 38.8975 33.8712 48.5247 34.9715C58.0746 36.0719 62.5775 37.6539 62.5775 43.5685C62.4999 49.6207 56.9101 53.0592 47.0496 53.0592Z" fill="#539E43"/>
</g>
<defs>
<clipPath id="clip0_10_24">
<rect width="75" height="75" fill="white"/>
</clipPath>
</defs>
</svg>
