<svg width="75" height="75" viewBox="0 0 75 75" fill="none" xmlns="http://www.w3.org/2000/svg">
<path fill-rule="evenodd" clip-rule="evenodd" d="M37.5 4.6875C43.9897 4.6875 50.3337 6.61192 55.7296 10.2174C61.1256 13.8229 65.3313 18.9475 67.8148 24.9432C70.2983 30.9389 70.9481 37.5364 69.682 43.9014C68.4159 50.2664 65.2909 56.113 60.7019 60.7019C56.113 65.2909 50.2664 68.4159 43.9014 69.682C37.5364 70.9481 30.9389 70.2983 24.9432 67.8148C18.9475 65.3313 13.8229 61.1256 10.2174 55.7296C6.61192 50.3337 4.6875 43.9897 4.6875 37.5C4.6875 28.7976 8.14452 20.4516 14.2981 14.2981C20.4516 8.14452 28.7976 4.6875 37.5 4.6875Z" fill="#CC6699"/>
<path d="M58.0829 18.7312C56.5969 12.9047 46.9336 10.9969 37.7883 14.2359C32.0609 16.1605 26.7693 19.1958 22.2165 23.168C17.1797 27.8789 16.3758 31.9805 16.7063 33.6937C17.8782 39.7406 26.1586 43.6922 29.5641 46.6242V46.6406C28.561 47.1351 21.211 50.8594 19.486 54.6562C17.6719 58.6687 19.7743 61.5469 21.1688 61.9336C23.2625 62.4376 25.4615 62.2736 27.4573 61.4644C29.453 60.6553 31.1454 59.2417 32.2969 57.4219C33.2486 55.9474 33.844 54.2717 34.036 52.5274C34.2281 50.7831 34.0114 49.018 33.4032 47.3719C35.0435 46.9551 36.7486 46.8572 38.4258 47.0836C44.1821 47.7562 45.3118 51.3492 45.0961 52.8539C44.9947 53.3895 44.7792 53.897 44.4641 54.3419C44.1491 54.7867 43.7419 55.1585 43.2704 55.432C42.8672 55.6828 42.743 55.7672 42.7782 55.9547C42.8274 56.2242 43.0126 56.2148 43.3571 56.1562C44.2221 55.8838 44.9843 55.3557 45.5433 54.6415C46.1022 53.9273 46.4317 53.0606 46.4883 52.1555C46.6266 48.6398 43.2493 44.6883 37.268 44.789C35.5308 44.7394 33.7974 44.977 32.1376 45.4922C32.0545 45.3973 31.9701 45.3035 31.8844 45.2109C28.186 41.2664 21.3516 38.475 21.6399 33.1711C21.7454 31.2422 22.4157 26.1656 34.7649 20.0062C44.8899 14.9601 52.9946 16.35 54.3961 19.4273C56.3977 23.8242 50.0649 31.9922 39.5508 33.1711C38.3887 33.407 37.1884 33.3782 36.039 33.0869C34.8895 32.7956 33.8204 32.2492 32.911 31.4883C32.3579 30.8789 32.2758 30.8531 32.0696 30.9656C31.7344 31.1508 31.9477 31.6898 32.0696 32.0086C32.4722 32.7341 33.0156 33.372 33.668 33.8848C34.3204 34.3975 35.0686 34.7748 35.8688 34.9945C40.0027 35.8927 44.3144 35.4663 48.1922 33.7758C54.5696 31.3172 59.543 24.4617 58.0829 18.7312ZM30.9797 48.4289C31.4453 50.0336 31.4216 51.7408 30.9118 53.332C30.8571 53.4976 30.7969 53.6617 30.7313 53.8242C30.6657 53.9867 30.5946 54.143 30.518 54.293C30.1236 55.1 29.6126 55.8447 29.0016 56.5031C27.0961 58.582 24.4313 59.3695 23.2899 58.7062C22.0571 57.9914 22.6735 55.0594 24.8836 52.7226C26.5819 51.0433 28.5398 49.6489 30.6821 48.5929L30.9797 48.4289Z" fill="white"/>
</svg>
