<svg width="116" height="148" viewBox="0 0 116 148" fill="none" xmlns="http://www.w3.org/2000/svg">
<path d="M107.835 50.4115L107.023 50.1667L114.477 30.2114C115.621 27.1483 115.361 23.8031 113.756 20.9116C112.15 18.0201 109.329 15.8192 105.915 14.793L105.914 14.7928L58.7786 0.6309C55.3637 -0.395269 51.6342 -0.162625 48.4106 1.27765C45.187 2.71793 42.7332 5.24786 41.5892 8.31089L41.589 8.31145L0.703365 117.788C0.136892 119.305 -0.0909965 120.907 0.0327194 122.502C0.156435 124.098 0.629328 125.656 1.4244 127.088C2.21947 128.519 3.32115 129.797 4.66653 130.847C6.01191 131.896 7.57464 132.698 9.26552 133.206L9.26614 133.207L56.4005 147.369C59.8154 148.395 63.5448 148.163 66.7683 146.722C69.9919 145.282 72.4455 142.752 73.5895 139.689L101.718 64.3722L102.53 64.6162L107.835 50.4115Z" fill="#3F3D56"/>
<path d="M105.31 17.9545L99.1571 16.1057C99.2076 16.813 99.0635 17.5205 98.7374 18.166C98.4113 18.8114 97.9133 19.3751 97.2871 19.8073C96.661 20.2394 95.9259 20.5268 95.1468 20.6442C94.3676 20.7615 93.5682 20.7052 92.819 20.4802L65.8167 12.3666C65.0677 12.1413 64.3919 11.7543 63.8489 11.2396C63.3059 10.7249 62.9123 10.0983 62.7029 9.4151C62.4934 8.73186 62.4744 8.01289 62.6477 7.32153C62.8209 6.63016 63.181 5.98762 63.6963 5.45048L57.9498 3.72375C55.3995 2.95748 52.6143 3.1313 50.2069 4.20696C47.7995 5.28262 45.9671 7.17202 45.1128 9.45953L4.28567 118.775C3.43139 121.063 3.62516 123.561 4.82438 125.72C6.0236 127.88 8.13003 129.523 10.6803 130.29L58.0417 144.521C60.592 145.287 63.3771 145.113 65.7845 144.037C68.1919 142.962 70.0243 141.072 70.8787 138.785L111.705 29.4688C112.559 27.1813 112.365 24.683 111.166 22.5237C109.967 20.3643 107.86 18.7207 105.31 17.9545L105.31 17.9545Z" fill="white"/>
<path d="M93.4655 54.6288L42.922 39.4418C42.674 39.3669 42.4691 39.2069 42.3524 38.9968C42.2358 38.7867 42.2168 38.5436 42.2996 38.321L46.4997 27.0746C46.5831 26.8521 46.7615 26.6683 46.9958 26.5637C47.23 26.459 47.501 26.442 47.7493 26.5163L98.2932 41.7035C98.5412 41.7784 98.7461 41.9384 98.8627 42.1485C98.9794 42.3586 98.9984 42.6017 98.9156 42.8243L94.7155 54.0703C94.6321 54.2928 94.4537 54.4766 94.2194 54.5812C93.9852 54.6859 93.7142 54.7029 93.466 54.6286L93.4655 54.6288ZM47.6237 26.8525C47.4748 26.8079 47.3122 26.8182 47.1717 26.881C47.0311 26.9438 46.9241 27.054 46.8741 27.1875L42.674 38.4336C42.6243 38.5672 42.6357 38.713 42.7057 38.839C42.7758 38.9651 42.8987 39.0611 43.0475 39.106L93.5913 54.2932C93.7402 54.3378 93.9028 54.3275 94.0433 54.2647C94.1839 54.2019 94.2909 54.0917 94.3409 53.9581L98.5416 42.7127C98.5913 42.5791 98.5799 42.4333 98.5099 42.3072C98.4399 42.1812 98.3169 42.0852 98.1681 42.0403L47.6237 26.8525Z" fill="#3F3D56"/>
<path d="M76.8478 99.1254L26.3041 83.9384C26.056 83.8635 25.8512 83.7035 25.7345 83.4934C25.6178 83.2833 25.5988 83.0402 25.6817 82.8176L33.4561 62.001C33.5395 61.7785 33.7179 61.5947 33.9521 61.4901C34.1864 61.3854 34.4574 61.3684 34.7056 61.4427L85.2495 76.6293C85.4976 76.7042 85.7024 76.8642 85.8191 77.0743C85.9358 77.2844 85.9548 77.5275 85.8719 77.7501L78.0971 98.5671C78.0137 98.7896 77.8353 98.9733 77.6011 99.0779C77.3669 99.1826 77.096 99.1997 76.8478 99.1254ZM34.5801 61.7783C34.4311 61.7337 34.2686 61.744 34.128 61.8068C33.9875 61.8696 33.8805 61.9799 33.8305 62.1134L26.0561 82.9299C26.0064 83.0635 26.0178 83.2094 26.0878 83.3354C26.1578 83.4615 26.2808 83.5575 26.4296 83.6023L76.9735 98.7896C77.1225 98.8342 77.2851 98.8239 77.4256 98.7611C77.5661 98.6983 77.6732 98.588 77.7232 98.4545L85.498 77.6376C85.5477 77.504 85.5363 77.3581 85.4662 77.2321C85.3962 77.106 85.2733 77.01 85.1244 76.9652L34.5801 61.7783Z" fill="#3F3D56"/>
<path d="M86.569 71.9792L64.1059 65.2285C63.8578 65.1537 63.653 64.9936 63.5363 64.7835C63.4196 64.5734 63.4006 64.3304 63.4834 64.1077L67.6835 52.8617C67.767 52.6392 67.9454 52.4555 68.1796 52.3508C68.4139 52.2461 68.6848 52.2291 68.9331 52.3034L91.3969 59.0539C91.645 59.1288 91.8498 59.2888 91.9665 59.4989C92.0832 59.709 92.1022 59.9521 92.0193 60.1747L87.8194 71.4207C87.7361 71.6434 87.5576 71.8274 87.3231 71.9321C87.0886 72.0368 86.8174 72.0538 86.569 71.9792ZM68.8076 52.64C68.6586 52.5954 68.496 52.6056 68.3555 52.6685C68.215 52.7313 68.1079 52.8415 68.0579 52.975L63.858 64.221C63.8083 64.3546 63.8198 64.5005 63.8898 64.6265C63.9598 64.7526 64.0827 64.8486 64.2316 64.8934L86.6954 71.6432C86.8444 71.6878 87.0069 71.6775 87.1475 71.6147C87.288 71.5519 87.395 71.4417 87.445 71.3081L91.6451 60.0621C91.6948 59.9285 91.6834 59.7827 91.6134 59.6567C91.5434 59.5306 91.4205 59.4346 91.2716 59.3897L68.8076 52.64Z" fill="#E6E6E6"/>
<path d="M38.6091 117.89L16.1459 111.14C15.8978 111.065 15.693 110.905 15.5763 110.695C15.4596 110.485 15.4406 110.242 15.5235 110.019L23.3606 89.0343C23.444 88.8118 23.6224 88.6281 23.8567 88.5234C24.0909 88.4187 24.3619 88.4017 24.6101 88.476L47.0738 95.2258C47.3218 95.3006 47.5266 95.4606 47.6433 95.6707C47.76 95.8808 47.779 96.1239 47.6962 96.3466L39.8586 117.331C39.7752 117.554 39.5968 117.738 39.3625 117.842C39.1283 117.947 38.8573 117.964 38.6091 117.89ZM24.484 88.8116C24.3351 88.767 24.1725 88.7773 24.0319 88.8401C23.8914 88.9029 23.7844 89.0132 23.7344 89.1467L15.897 110.132C15.8473 110.265 15.8587 110.411 15.9288 110.537C15.9988 110.663 16.1217 110.759 16.2705 110.804L38.7346 117.554C38.8835 117.598 39.0461 117.588 39.1866 117.525C39.3272 117.463 39.4342 117.352 39.4842 117.219L47.3213 96.234C47.371 96.1004 47.3596 95.9546 47.2896 95.8285C47.2196 95.7024 47.0967 95.6064 46.9478 95.5616L24.484 88.8116Z" fill="#E6E6E6"/>
<path d="M66.3145 126.215L43.8505 119.465C43.6024 119.39 43.3976 119.23 43.2809 119.02C43.1642 118.81 43.1452 118.567 43.2281 118.344L51.0652 97.3591C51.1486 97.1366 51.327 96.9529 51.5613 96.8482C51.7955 96.7436 52.0665 96.7265 52.3147 96.8008L74.7788 103.551C75.0268 103.626 75.2317 103.786 75.3484 103.996C75.465 104.206 75.484 104.449 75.4012 104.672L67.5641 125.656C67.4807 125.879 67.3023 126.063 67.0681 126.167C66.8338 126.272 66.5628 126.289 66.3145 126.215ZM52.1895 97.1367C52.0405 97.0921 51.8779 97.1023 51.7374 97.1651C51.5968 97.2279 51.4898 97.3382 51.4398 97.4717L43.6025 118.457C43.5528 118.59 43.5642 118.736 43.6342 118.862C43.7042 118.988 43.8272 119.084 43.976 119.129L66.44 125.879C66.589 125.924 66.7516 125.913 66.8921 125.851C67.0326 125.788 67.1396 125.678 67.1897 125.544L75.0268 104.559C75.0765 104.426 75.0651 104.28 74.9951 104.154C74.925 104.028 74.8021 103.932 74.6533 103.887L52.1895 97.1367Z" fill="#E6E6E6"/>
<path d="M39.4307 74.6706C41.6515 74.6706 43.4518 73.0557 43.4518 71.0638C43.4518 69.0718 41.6515 67.457 39.4307 67.457C37.21 67.457 35.4097 69.0718 35.4097 71.0638C35.4097 73.0557 37.21 74.6706 39.4307 74.6706Z" fill="#6C63FF"/>
<path d="M49.0869 71.4298C48.9184 71.3792 48.7343 71.3907 48.5752 71.4617C48.4161 71.5328 48.295 71.6577 48.2386 71.8089C48.1821 71.96 48.1949 72.1251 48.2742 72.2678C48.3534 72.4106 48.4926 72.5192 48.6612 72.5698L78.6186 81.5712C78.702 81.5962 78.7902 81.6063 78.878 81.6009C78.9658 81.5954 79.0515 81.5744 79.1303 81.5393C79.2091 81.5041 79.2793 81.4553 79.3371 81.3957C79.3949 81.3362 79.439 81.267 79.4669 81.1921C79.4949 81.1173 79.5061 81.0382 79.5 80.9595C79.4939 80.8807 79.4706 80.8038 79.4313 80.7331C79.3921 80.6625 79.3377 80.5994 79.2713 80.5476C79.2049 80.4958 79.1278 80.4562 79.0444 80.4312L49.0869 71.4298Z" fill="#E6E6E6"/>
<path d="M47.8103 74.8496C47.7269 74.8245 47.6387 74.8145 47.5509 74.8199C47.4631 74.8254 47.3774 74.8463 47.2986 74.8815C47.2199 74.9167 47.1496 74.9655 47.0918 75.0251C47.034 75.0846 46.9899 75.1538 46.962 75.2287C46.934 75.3035 46.9228 75.3826 46.9289 75.4613C46.935 75.5401 46.9583 75.617 46.9975 75.6876C47.0368 75.7583 47.0912 75.8213 47.1576 75.8732C47.224 75.925 47.3011 75.9645 47.3845 75.9896L60.2753 79.863C60.3587 79.8881 60.4469 79.8982 60.5347 79.8927C60.6225 79.8873 60.7082 79.8663 60.787 79.8311C60.8658 79.7959 60.9361 79.7472 60.9938 79.6876C61.0516 79.628 61.0957 79.5589 61.1237 79.484C61.1516 79.4091 61.1629 79.3301 61.1568 79.2513C61.1507 79.1726 61.1273 79.0957 61.0881 79.025C61.0488 78.9544 60.9945 78.8913 60.9281 78.8395C60.8617 78.7877 60.7845 78.7481 60.7011 78.723L47.8103 74.8496Z" fill="#E6E6E6"/>
<path d="M34.0382 76.7925C33.5548 76.6472 33.066 76.7848 32.9487 77.0999C32.8313 77.4149 33.1292 77.788 33.6126 77.9333L74.9446 90.3525C75.428 90.4978 75.9168 90.3602 76.0341 90.0451C76.1515 89.7301 75.8536 89.357 75.3702 89.2117L34.0382 76.7925Z" fill="#E6E6E6"/>
<path d="M32.7611 80.2125C32.2777 80.0673 31.7889 80.2048 31.6716 80.5199C31.5542 80.835 31.8521 81.2081 32.3355 81.3533L73.6675 93.7726C74.1509 93.9178 74.6397 93.7802 74.757 93.4652C74.8744 93.1501 74.5765 92.777 74.0931 92.6318L32.7611 80.2125Z" fill="#E6E6E6"/>
<path d="M53.3504 38.5142C55.5712 38.5142 57.3715 36.8994 57.3715 34.9074C57.3715 32.9155 55.5712 31.3007 53.3504 31.3007C51.1296 31.3007 49.3293 32.9155 49.3293 34.9074C49.3293 36.8994 51.1296 38.5142 53.3504 38.5142Z" fill="#6C63FF"/>
<path d="M63.0071 35.2732C62.9237 35.2481 62.8355 35.238 62.7477 35.2435C62.6599 35.249 62.5742 35.2699 62.4954 35.3051C62.4166 35.3403 62.3464 35.3891 62.2886 35.4486C62.2308 35.5082 62.1867 35.5774 62.1587 35.6522C62.1308 35.7271 62.1195 35.8062 62.1256 35.8849C62.1317 35.9637 62.1551 36.0406 62.1943 36.1112C62.2336 36.1819 62.2879 36.2449 62.3543 36.2967C62.4207 36.3486 62.4979 36.3881 62.5813 36.4132L92.5387 45.4146C92.6222 45.4396 92.7103 45.4497 92.7981 45.4442C92.8859 45.4388 92.9717 45.4178 93.0504 45.3826C93.1292 45.3474 93.1995 45.2987 93.2573 45.2391C93.315 45.1795 93.3591 45.1104 93.3871 45.0355C93.4151 44.9607 93.4263 44.8816 93.4202 44.8028C93.4141 44.7241 93.3908 44.6472 93.3515 44.5765C93.3123 44.5059 93.2579 44.4428 93.1915 44.391C93.1251 44.3392 93.048 44.2996 92.9645 44.2745L63.0071 35.2732Z" fill="#E6E6E6"/>
<path d="M61.7303 38.6932C61.6468 38.6682 61.5587 38.6581 61.4709 38.6636C61.3831 38.669 61.2973 38.69 61.2186 38.7252C61.1398 38.7604 61.0695 38.8091 61.0117 38.8687C60.954 38.9283 60.9098 38.9974 60.8819 39.0723C60.8539 39.1471 60.8427 39.2262 60.8488 39.305C60.8549 39.3837 60.8782 39.4606 60.9175 39.5313C60.9567 39.6019 61.0111 39.665 61.0775 39.7168C61.1439 39.7686 61.221 39.8082 61.3045 39.8333L74.1952 43.7067C74.2787 43.7318 74.3668 43.7418 74.4546 43.7364C74.5424 43.7309 74.6281 43.7099 74.7069 43.6747C74.7857 43.6396 74.856 43.5908 74.9138 43.5312C74.9715 43.4717 75.0156 43.4025 75.0436 43.3276C75.0715 43.2528 75.0828 43.1737 75.0767 43.095C75.0706 43.0162 75.0472 42.9393 75.008 42.8686C74.9688 42.798 74.9144 42.7349 74.848 42.6831C74.7816 42.6313 74.7045 42.5917 74.621 42.5667L61.7303 38.6932Z" fill="#E6E6E6"/>
<path d="M58.8436 63.6506L37.7705 57.3186L45.6072 51.1039C45.7476 50.9925 45.9183 50.9162 46.1021 50.8827C46.2858 50.8492 46.4761 50.8597 46.6539 50.9131C46.8317 50.9665 46.9907 51.061 47.1149 51.187C47.2391 51.313 47.3241 51.4661 47.3614 51.6309L48.2506 55.5589L53.943 51.0442C54.1188 50.9047 54.3325 50.8093 54.5625 50.7674C54.7925 50.7255 55.0308 50.7387 55.2533 50.8055C55.4759 50.8724 55.6749 50.9907 55.8304 51.1484C55.9858 51.3061 56.0922 51.4978 56.139 51.7041L58.8436 63.6506ZM38.5443 57.1776L58.3206 63.1199L55.7519 51.7754C55.719 51.63 55.6439 51.495 55.5344 51.3839C55.4248 51.2728 55.2846 51.1895 55.1278 51.1424C54.971 51.0953 54.8031 51.086 54.641 51.1155C54.479 51.145 54.3284 51.2122 54.2045 51.3105L47.9998 56.2307L46.9743 51.7016C46.9508 51.5977 46.8973 51.5012 46.819 51.4218C46.7408 51.3424 46.6406 51.2829 46.5286 51.2492C46.4165 51.2155 46.2966 51.2089 46.1808 51.23C46.065 51.2511 45.9574 51.2992 45.8689 51.3694L38.5443 57.1776Z" fill="#E6E6E6"/>
<path d="M58.8641 63.6543L36.4003 56.9045C36.1522 56.8297 35.9474 56.6697 35.8307 56.4596C35.714 56.2494 35.695 56.0064 35.7779 55.7837L39.9778 44.5377C40.0612 44.3152 40.2396 44.1315 40.4738 44.0268C40.7081 43.9222 40.9791 43.9051 41.2273 43.9794L63.6913 50.7294C63.9394 50.8042 64.1442 50.9642 64.2609 51.1743C64.3776 51.3845 64.3966 51.6275 64.3138 51.8502L60.1136 63.096C60.0302 63.3185 59.8518 63.5022 59.6176 63.6069C59.3833 63.7115 59.1124 63.7286 58.8641 63.6543ZM41.102 44.3151C40.9531 44.2705 40.7905 44.2807 40.6499 44.3435C40.5094 44.4063 40.4024 44.5166 40.3524 44.6501L36.1525 55.8961C36.1028 56.0297 36.1142 56.1755 36.1842 56.3016C36.2542 56.4277 36.3772 56.5236 36.526 56.5685L58.9901 63.3185C59.139 63.363 59.3016 63.3528 59.4421 63.29C59.5827 63.2272 59.6897 63.1169 59.7397 62.9834L63.9398 51.7374C63.9895 51.6038 63.9781 51.458 63.9081 51.3319C63.838 51.2059 63.7151 51.1099 63.5663 51.065L41.102 44.3151Z" fill="#E6E6E6"/>
<path d="M27.7797 94.2417C27.6962 94.2165 27.608 94.2063 27.5201 94.2117C27.4322 94.2171 27.3464 94.238 27.2675 94.2732C27.1886 94.3084 27.1183 94.3572 27.0604 94.4168C27.0026 94.4764 26.9584 94.5456 26.9305 94.6205C26.9025 94.6954 26.8912 94.7746 26.8974 94.8534C26.9035 94.9322 26.9269 95.0092 26.9662 95.0799C27.0056 95.1505 27.06 95.2136 27.1266 95.2654C27.1931 95.3172 27.2703 95.3567 27.3539 95.3817L40.2446 99.2551C40.4131 99.3056 40.597 99.2939 40.7559 99.2228C40.9148 99.1517 41.0358 99.0269 41.0922 98.8759C41.1486 98.7248 41.1359 98.5598 41.0568 98.4172C40.9777 98.2746 40.8387 98.1659 40.6704 98.1151L27.7797 94.2417Z" fill="#E6E6E6"/>
<path d="M26.5255 97.5999C26.442 97.5747 26.3538 97.5645 26.2659 97.5699C26.1781 97.5753 26.0922 97.5962 26.0134 97.6314C25.9345 97.6665 25.8641 97.7153 25.8063 97.7749C25.7485 97.8345 25.7043 97.9037 25.6763 97.9787C25.6483 98.0536 25.6371 98.1327 25.6432 98.2115C25.6494 98.2903 25.6728 98.3673 25.7121 98.438C25.7514 98.5087 25.8059 98.5718 25.8724 98.6236C25.9389 98.6754 26.0162 98.7149 26.0997 98.7399L38.9907 102.614C39.1591 102.664 39.3427 102.652 39.5014 102.581C39.6601 102.51 39.7809 102.385 39.8373 102.234C39.8936 102.084 39.881 101.919 39.8021 101.776C39.7232 101.634 39.5845 101.525 39.4165 101.474L26.5255 97.5999Z" fill="#E6E6E6"/>
<path d="M63.1441 120.449C63.3126 120.499 63.4965 120.488 63.6554 120.417C63.8143 120.346 63.9352 120.221 63.9916 120.07C64.0481 119.919 64.0353 119.754 63.9562 119.611C63.8772 119.468 63.7382 119.36 63.5699 119.309L50.6791 115.436C50.5107 115.385 50.3268 115.397 50.1679 115.468C50.009 115.539 49.888 115.664 49.8316 115.815C49.7752 115.966 49.7879 116.131 49.867 116.273C49.9461 116.416 50.085 116.525 50.2533 116.576L63.1441 120.449Z" fill="#E6E6E6"/>
<path d="M64.3982 117.091C64.4817 117.116 64.5699 117.126 64.6578 117.121C64.7456 117.115 64.8315 117.094 64.9103 117.059C64.9892 117.024 65.0596 116.975 65.1174 116.916C65.1752 116.856 65.2194 116.787 65.2474 116.712C65.2754 116.637 65.2866 116.558 65.2805 116.479C65.2743 116.4 65.2509 116.323 65.2116 116.253C65.1723 116.182 65.1178 116.119 65.0513 116.067C64.9848 116.015 64.9075 115.976 64.824 115.951L51.9332 112.077C51.8497 112.052 51.7615 112.042 51.6737 112.047C51.5858 112.053 51.5 112.074 51.4211 112.109C51.3422 112.144 51.2718 112.193 51.214 112.252C51.1562 112.312 51.112 112.381 51.084 112.456C51.0561 112.531 51.0448 112.61 51.0509 112.689C51.0571 112.768 51.0805 112.845 51.1198 112.915C51.1591 112.986 51.2136 113.049 51.2801 113.101C51.3466 113.153 51.4239 113.192 51.5074 113.217L64.3982 117.091Z" fill="#E6E6E6"/>
<path d="M84.5315 63.2985C84.615 63.3237 84.7032 63.3339 84.7911 63.3285C84.8789 63.323 84.9648 63.3022 85.0436 63.267C85.1225 63.2318 85.1929 63.183 85.2507 63.1234C85.3085 63.0638 85.3527 62.9946 85.3807 62.9197C85.4087 62.8448 85.4199 62.7656 85.4138 62.6868C85.4076 62.608 85.3842 62.531 85.3449 62.4603C85.3056 62.3896 85.2511 62.3266 85.1846 62.2748C85.1181 62.223 85.0408 62.1835 84.9573 62.1585L72.0665 58.285C71.983 58.2599 71.8948 58.2497 71.807 58.2551C71.7191 58.2605 71.6333 58.2814 71.5544 58.3165C71.4755 58.3517 71.4052 58.4005 71.3473 58.4601C71.2895 58.5197 71.2453 58.5889 71.2173 58.6638C71.1894 58.7388 71.1781 58.8179 71.1842 58.8967C71.1904 58.9755 71.2138 59.0525 71.2531 59.1232C71.2924 59.1939 71.3469 59.2569 71.4134 59.3087C71.4799 59.3605 71.5572 59.4001 71.6407 59.4251L84.5315 63.2985Z" fill="#E6E6E6"/>
<path d="M83.4602 65.988C83.5437 66.0132 83.6319 66.0234 83.7198 66.018C83.8076 66.0126 83.8935 65.9917 83.9723 65.9566C84.0512 65.9214 84.1216 65.8726 84.1794 65.813C84.2373 65.7534 84.2814 65.6842 84.3094 65.6093C84.3374 65.5343 84.3486 65.4552 84.3425 65.3764C84.3363 65.2976 84.3129 65.2206 84.2736 65.1499C84.2343 65.0792 84.1798 65.0162 84.1133 64.9644C84.0468 64.9126 83.9696 64.873 83.886 64.848L70.9952 60.9746C70.9118 60.9494 70.8236 60.9392 70.7357 60.9446C70.6478 60.95 70.562 60.9709 70.4831 61.0061C70.4042 61.0413 70.3339 61.0901 70.276 61.1497C70.2182 61.2093 70.174 61.2785 70.146 61.3534C70.1181 61.4283 70.1068 61.5075 70.113 61.5863C70.1191 61.6651 70.1425 61.7421 70.1818 61.8128C70.2211 61.8835 70.2756 61.9465 70.3421 61.9983C70.4086 62.0501 70.4859 62.0896 70.5695 62.1146L83.4602 65.988Z" fill="#E6E6E6"/>
</svg>
