<svg width="562" height="382" viewBox="0 0 562 382" fill="none" xmlns="http://www.w3.org/2000/svg">
<g clip-path="url(#clip0_3_116)">
<path d="M504.174 372.937C491.57 382.014 475.235 382.47 459.446 381.355C457.242 381.199 455.052 381.017 452.884 380.82C452.87 380.817 452.853 380.818 452.84 380.814C452.736 380.804 452.631 380.794 452.531 380.789C452.084 380.747 451.636 380.705 451.193 380.663L451.297 380.863L451.626 381.483C451.508 381.275 451.39 381.072 451.272 380.864C451.237 380.802 451.198 380.74 451.163 380.678C447.073 373.562 443.016 366.185 441.982 358.06C440.912 349.627 443.918 340.077 451.343 335.932C452.317 335.39 453.348 334.959 454.417 334.645C454.861 334.51 455.311 334.401 455.766 334.304C458.551 333.686 461.45 333.82 464.166 334.694C466.881 335.567 469.315 337.147 471.216 339.273C473.118 341.398 474.42 343.991 474.986 346.786C475.553 349.58 475.365 352.475 474.442 355.173C480.737 348.721 479.563 338.253 477.391 329.504C475.216 320.756 472.582 311.021 477.007 303.163C479.467 298.789 483.792 296.076 488.647 294.982C488.796 294.95 488.944 294.918 489.094 294.89C494.878 293.719 500.891 294.773 505.932 297.84C515.214 303.687 519.981 314.774 521.529 325.635C524.022 343.111 518.505 362.615 504.174 372.937Z" fill="#F2F2F2"/>
<path d="M500.105 344.921C499.739 348.776 498.812 352.557 497.355 356.145C496.012 359.32 494.201 362.276 491.984 364.916C487.373 370.31 481.534 374.519 474.958 377.188C469.984 379.225 464.772 380.625 459.446 381.355C457.242 381.199 455.052 381.017 452.884 380.82C452.87 380.817 452.853 380.818 452.84 380.814C452.736 380.804 452.631 380.795 452.532 380.789C452.084 380.747 451.636 380.705 451.193 380.663L451.297 380.863L451.626 381.483C451.508 381.275 451.39 381.072 451.272 380.864C451.237 380.802 451.198 380.74 451.163 380.678C455.156 376.701 458.137 371.826 459.856 366.46C461.576 361.095 461.984 355.396 461.046 349.84C460.065 344.324 457.794 339.117 454.417 334.645C454.861 334.51 455.311 334.401 455.767 334.304C457.05 336.058 458.175 337.922 459.13 339.873C462.556 346.835 463.649 354.713 462.247 362.344C460.944 369.249 457.697 375.639 452.888 380.763C453.309 380.734 453.734 380.7 454.151 380.662C462.032 379.994 469.897 378.3 477.046 374.831C483.156 371.937 488.461 367.586 492.493 362.16C496.823 356.191 498.73 349.011 499.058 341.714C499.31 333.853 498.486 325.993 496.608 318.355C494.787 310.566 492.019 303.03 488.367 295.913C488.285 295.752 488.269 295.565 488.321 295.392C488.373 295.219 488.49 295.072 488.647 294.982C488.778 294.894 488.939 294.861 489.094 294.89C489.17 294.911 489.24 294.948 489.3 294.999C489.36 295.05 489.407 295.114 489.438 295.186C489.889 296.065 490.331 296.944 490.757 297.834C494.299 305.244 496.908 313.064 498.522 321.117C500.088 328.885 500.925 337.011 500.105 344.921Z" fill="white"/>
<path d="M23.4474 121.417C23.0721 121.417 22.7002 121.347 22.3507 121.21C21.7854 120.993 21.2996 120.609 20.9577 120.11C20.6159 119.61 20.4341 119.018 20.4367 118.413V87.0573C20.4355 85.996 20.0133 84.9784 19.2626 84.228C18.5119 83.4775 17.494 83.0553 16.4324 83.0541H10.0094C7.35566 83.0511 4.81145 81.9959 2.93497 80.12C1.05849 78.2441 0.00297419 75.7008 0 73.0479V10.0062C0.00297595 7.35329 1.05849 4.80991 2.93497 2.93403C4.81145 1.05815 7.35566 0.00297323 10.0094 0H236.566C239.219 0.00297676 241.763 1.05815 243.64 2.93403C245.516 4.80991 246.572 7.35329 246.575 10.0062V73.0479C246.572 75.7007 245.516 78.2441 243.64 80.12C241.763 81.9959 239.219 83.0511 236.566 83.054H61.6964C61.1413 83.0547 60.5924 83.1704 60.0843 83.3938C59.5762 83.6173 59.12 83.9436 58.7445 84.3522L25.6527 120.441C25.3732 120.748 25.0328 120.994 24.653 121.162C24.2733 121.33 23.8627 121.417 23.4474 121.417ZM10.0094 1.33333C7.70928 1.33593 5.5041 2.25051 3.87767 3.87642C2.25123 5.50234 1.33636 7.7068 1.33376 10.0062V73.0479C1.33636 75.3472 2.25123 77.5517 3.87767 79.1776C5.5041 80.8035 7.70928 81.7181 10.0094 81.7207H16.4323C17.8476 81.7223 19.2045 82.2851 20.2053 83.2855C21.206 84.286 21.7689 85.6424 21.7705 87.0573V118.413C21.7705 118.749 21.8721 119.077 22.0619 119.355C22.2518 119.632 22.521 119.846 22.8344 119.968C23.1477 120.089 23.4906 120.114 23.8181 120.037C24.1455 119.961 24.4423 119.788 24.6695 119.54L57.7613 83.4512C58.262 82.9065 58.8701 82.4715 59.5474 82.1736C60.2248 81.8758 60.9565 81.7215 61.6964 81.7207H236.566C238.866 81.7181 241.071 80.8035 242.697 79.1776C244.324 77.5517 245.239 75.3472 245.241 73.0479V10.0062C245.239 7.7068 244.324 5.50234 242.697 3.87642C241.071 2.25051 238.866 1.33593 236.566 1.33333H10.0094Z" fill="#CCCCCC"/>
<path d="M24.5519 28.3934C29.3892 28.3934 33.3106 24.4733 33.3106 19.6376C33.3106 14.8019 29.3892 10.8818 24.5519 10.8818C19.7147 10.8818 15.7933 14.8019 15.7933 19.6376C15.7933 24.4733 19.7147 28.3934 24.5519 28.3934Z" fill="#CCCCCC"/>
<path d="M226.347 68.0864H20.2277C19.6138 68.0871 19.0058 67.9668 18.4384 67.7325C17.871 67.4982 17.3554 67.1543 16.9211 66.7206C16.4867 66.2869 16.1421 65.7719 15.907 65.2049C15.6719 64.638 15.5509 64.0303 15.5509 63.4166C15.5509 62.8029 15.6719 62.1952 15.907 61.6283C16.1421 61.0613 16.4867 60.5463 16.9211 60.1126C17.3554 59.6789 17.871 59.335 18.4384 59.1007C19.0058 58.8663 19.6138 58.7461 20.2277 58.7468H226.347C226.961 58.7461 227.569 58.8663 228.136 59.1007C228.704 59.335 229.219 59.6789 229.654 60.1126C230.088 60.5463 230.433 61.0613 230.668 61.6283C230.903 62.1952 231.024 62.8029 231.024 63.4166C231.024 64.0303 230.903 64.638 230.668 65.2049C230.433 65.7719 230.088 66.2869 229.654 66.7206C229.219 67.1543 228.704 67.4982 228.136 67.7325C227.569 67.9668 226.961 68.0871 226.347 68.0864Z" fill="#CCCCCC"/>
<path d="M159.198 48.2399H20.2277C19.6138 48.2406 19.0058 48.1204 18.4384 47.886C17.871 47.6517 17.3554 47.3078 16.9211 46.8741C16.4867 46.4404 16.1421 45.9254 15.907 45.3585C15.6719 44.7915 15.5509 44.1838 15.5509 43.5701C15.5509 42.9564 15.6719 42.3487 15.907 41.7818C16.1421 41.2149 16.4867 40.6998 16.9211 40.2661C17.3554 39.8324 17.871 39.4886 18.4384 39.2542C19.0058 39.0199 19.6138 38.8996 20.2277 38.9004H159.198C159.812 38.8996 160.42 39.0199 160.987 39.2542C161.554 39.4886 162.07 39.8324 162.504 40.2661C162.939 40.6998 163.283 41.2149 163.518 41.7818C163.754 42.3487 163.875 42.9564 163.875 43.5701C163.875 44.1838 163.754 44.7915 163.518 45.3585C163.283 45.9254 162.939 46.4404 162.504 46.8741C162.07 47.3078 161.554 47.6517 160.987 47.886C160.42 48.1204 159.812 48.2406 159.198 48.2399Z" fill="#CCCCCC"/>
<path d="M23.4474 343.815C23.0721 343.814 22.7002 343.744 22.3507 343.608C21.7854 343.391 21.2996 343.007 20.9578 342.507C20.6159 342.007 20.4342 341.416 20.4367 340.81V309.455C20.4355 308.393 20.0133 307.376 19.2626 306.625C18.5119 305.875 17.494 305.453 16.4324 305.451H10.0094C7.35566 305.448 4.81146 304.393 2.93498 302.517C1.0585 300.642 0.00298125 298.098 0 295.445V232.404C0.00297595 229.751 1.05849 227.207 2.93497 225.331C4.81145 223.456 7.35566 222.4 10.0094 222.397H236.566C239.219 222.4 241.763 223.456 243.64 225.331C245.516 227.207 246.572 229.751 246.575 232.404V295.445C246.572 298.098 245.516 300.642 243.64 302.517C241.763 304.393 239.219 305.449 236.566 305.452H61.6964C61.1413 305.452 60.5924 305.568 60.0843 305.791C59.5762 306.015 59.12 306.341 58.7445 306.75L25.6527 342.839C25.3732 343.146 25.0328 343.391 24.653 343.559C24.2733 343.727 23.8627 343.814 23.4474 343.815ZM10.0094 223.731C7.70927 223.733 5.5041 224.648 3.87767 226.274C2.25123 227.9 1.33636 230.104 1.33376 232.404V295.445C1.33636 297.745 2.25123 299.949 3.87767 301.575C5.5041 303.201 7.70928 304.116 10.0094 304.118H16.4323C17.8476 304.12 19.2045 304.683 20.2053 305.683C21.206 306.683 21.7689 308.04 21.7705 309.455V340.81C21.7705 341.146 21.8721 341.475 22.0619 341.752C22.2518 342.029 22.521 342.243 22.8344 342.365C23.1477 342.487 23.4906 342.511 23.8181 342.435C24.1455 342.359 24.4423 342.185 24.6695 341.937L57.7613 305.849C58.262 305.304 58.8701 304.869 59.5474 304.571C60.2248 304.273 60.9565 304.119 61.6964 304.118H236.566C238.866 304.116 241.071 303.201 242.697 301.575C244.324 299.949 245.239 297.745 245.241 295.445V232.404C245.239 230.104 244.324 227.9 242.697 226.274C241.071 224.648 238.866 223.733 236.566 223.731L10.0094 223.731Z" fill="#CCCCCC"/>
<path d="M358.01 228.238C357.595 228.238 357.184 228.151 356.804 227.983C356.425 227.815 356.084 227.569 355.805 227.262L322.713 191.173C322.337 190.765 321.881 190.438 321.373 190.215C320.865 189.991 320.316 189.876 319.761 189.875H144.892C142.238 189.872 139.694 188.817 137.818 186.941C135.941 185.065 134.886 182.522 134.883 179.869V116.827C134.886 114.174 135.941 111.631 137.818 109.755C139.694 107.879 142.238 106.824 144.892 106.821H371.448C374.102 106.824 376.646 107.879 378.523 109.755C380.399 111.631 381.455 114.174 381.458 116.827V179.869C381.455 182.522 380.399 185.065 378.523 186.941C376.646 188.817 374.102 189.872 371.448 189.875H365.025C363.963 189.876 362.946 190.298 362.195 191.049C361.444 191.799 361.022 192.817 361.021 193.878V225.234C361.023 225.839 360.842 226.431 360.5 226.93C360.158 227.43 359.672 227.814 359.107 228.031C358.757 228.168 358.385 228.238 358.01 228.238ZM144.892 108.154C142.592 108.157 140.387 109.071 138.76 110.697C137.134 112.323 136.219 114.528 136.216 116.827V179.869C136.219 182.168 137.134 184.373 138.76 185.999C140.387 187.624 142.592 188.539 144.892 188.542H319.761C320.501 188.542 321.233 188.697 321.91 188.995C322.587 189.292 323.195 189.727 323.696 190.272L356.788 226.361C357.015 226.609 357.312 226.782 357.639 226.858C357.967 226.935 358.31 226.91 358.623 226.788C358.936 226.667 359.206 226.453 359.396 226.176C359.585 225.898 359.687 225.57 359.687 225.234V193.878C359.689 192.463 360.251 191.107 361.252 190.106C362.253 189.106 363.61 188.543 365.025 188.542H371.448C373.748 188.539 375.953 187.624 377.58 185.999C379.206 184.373 380.121 182.168 380.124 179.869V116.827C380.121 114.528 379.206 112.323 377.58 110.697C375.953 109.071 373.748 108.157 371.448 108.154L144.892 108.154Z" fill="#3F3D56"/>
<path d="M24.5519 250.791C29.3892 250.791 33.3106 246.871 33.3106 242.035C33.3106 237.199 29.3892 233.279 24.5519 233.279C19.7147 233.279 15.7933 237.199 15.7933 242.035C15.7933 246.871 19.7147 250.791 24.5519 250.791Z" fill="#CCCCCC"/>
<path d="M226.347 290.484H20.2277C19.6138 290.485 19.0058 290.364 18.4384 290.13C17.871 289.896 17.3554 289.552 16.9211 289.118C16.4867 288.684 16.1421 288.169 15.907 287.602C15.6719 287.035 15.5509 286.428 15.5509 285.814C15.5509 285.2 15.6719 284.593 15.907 284.026C16.1421 283.459 16.4867 282.944 16.9211 282.51C17.3554 282.076 17.871 281.733 18.4384 281.498C19.0058 281.264 19.6138 281.144 20.2277 281.144H226.347C227.586 281.144 228.774 281.636 229.65 282.512C230.526 283.388 231.018 284.576 231.018 285.814C231.018 287.053 230.526 288.24 229.65 289.116C228.774 289.992 227.586 290.484 226.347 290.484Z" fill="#CCCCCC"/>
<path d="M159.198 270.637H20.2277C19.6138 270.638 19.0058 270.518 18.4384 270.284C17.871 270.049 17.3554 269.705 16.9211 269.272C16.4867 268.838 16.1421 268.323 15.907 267.756C15.6719 267.189 15.5509 266.581 15.5509 265.968C15.5509 265.354 15.6719 264.746 15.907 264.179C16.1421 263.612 16.4867 263.097 16.9211 262.664C17.3554 262.23 17.871 261.886 18.4384 261.652C19.0058 261.417 19.6138 261.297 20.2277 261.298H159.198C159.812 261.297 160.42 261.417 160.987 261.652C161.554 261.886 162.07 262.23 162.504 262.664C162.939 263.097 163.283 263.612 163.518 264.179C163.754 264.746 163.875 265.354 163.875 265.968C163.875 266.581 163.754 267.189 163.518 267.756C163.283 268.323 162.939 268.838 162.504 269.272C162.07 269.705 161.554 270.049 160.987 270.284C160.42 270.518 159.812 270.638 159.198 270.637Z" fill="#CCCCCC"/>
<path d="M159.435 134.631C164.272 134.631 168.193 130.71 168.193 125.875C168.193 121.039 164.272 117.119 159.435 117.119C154.597 117.119 150.676 121.039 150.676 125.875C150.676 130.71 154.597 134.631 159.435 134.631Z" fill="#3F3D56"/>
<path d="M361.23 174.323H155.11C153.872 174.323 152.683 173.831 151.807 172.956C150.931 172.08 150.439 170.892 150.439 169.654C150.439 168.415 150.931 167.227 151.807 166.352C152.683 165.476 153.872 164.984 155.11 164.984H361.23C362.469 164.984 363.657 165.476 364.533 166.352C365.409 167.227 365.901 168.415 365.901 169.654C365.901 170.892 365.409 172.08 364.533 172.956C363.657 173.831 362.469 174.323 361.23 174.323Z" fill="#21273D"/>
<path d="M294.08 154.477H155.11C154.497 154.478 153.888 154.357 153.321 154.123C152.754 153.889 152.238 153.545 151.804 153.111C151.369 152.678 151.025 152.162 150.79 151.596C150.555 151.029 150.434 150.421 150.434 149.807C150.434 149.193 150.555 148.586 150.79 148.019C151.025 147.452 151.369 146.937 151.804 146.503C152.238 146.07 152.754 145.726 153.321 145.491C153.888 145.257 154.497 145.137 155.11 145.137H294.08C294.694 145.137 295.302 145.257 295.87 145.491C296.437 145.726 296.953 146.07 297.387 146.503C297.821 146.937 298.166 147.452 298.401 148.019C298.636 148.586 298.757 149.193 298.757 149.807C298.757 150.421 298.636 151.029 298.401 151.596C298.166 152.162 297.821 152.678 297.387 153.111C296.953 153.545 296.437 153.889 295.87 154.123C295.302 154.357 294.694 154.478 294.08 154.477Z" fill="#21273D"/>
<path d="M361.14 240.239C361.34 239.28 361.748 238.376 362.336 237.591C362.923 236.807 363.675 236.16 364.54 235.698C365.404 235.235 366.359 234.968 367.338 234.914C368.317 234.86 369.296 235.022 370.206 235.388L385.85 217.417L389.173 229.343L373.807 244.58C373.092 246.067 371.856 247.24 370.333 247.876C368.81 248.513 367.107 248.569 365.545 248.034C363.984 247.499 362.673 246.41 361.861 244.973C361.049 243.537 360.793 241.852 361.14 240.239Z" fill="#FFB8B8"/>
<path d="M447.003 155.908C456.049 155.908 463.383 148.577 463.383 139.534C463.383 130.491 456.049 123.16 447.003 123.16C437.957 123.16 430.624 130.491 430.624 139.534C430.624 148.577 437.957 155.908 447.003 155.908Z" fill="#FFB7B7"/>
<path d="M427.761 364.915L419.586 364.915L415.696 333.389L427.763 333.39L427.761 364.915Z" fill="#FFB8B8"/>
<path d="M429.846 372.838L403.484 372.837V372.504C403.484 371.157 403.75 369.823 404.265 368.578C404.781 367.334 405.537 366.203 406.49 365.25C407.442 364.298 408.574 363.542 409.818 363.027C411.063 362.511 412.398 362.246 413.745 362.246H413.746L429.847 362.247L429.846 372.838Z" fill="#2F2E41"/>
<path d="M452.436 373.582L444.26 373.581L443.128 342.809L452.438 342.057L452.436 373.582Z" fill="#FFB8B8"/>
<path d="M454.521 381.505L428.159 381.504V381.17C428.159 379.823 428.424 378.49 428.94 377.245C429.456 376.001 430.211 374.87 431.164 373.917C432.117 372.965 433.248 372.209 434.493 371.694C435.738 371.178 437.072 370.913 438.42 370.913H438.42L454.521 370.914L454.521 381.505Z" fill="#2F2E41"/>
<path d="M450.11 367.829L443.744 367.08C443.022 366.993 442.355 366.648 441.868 366.108C441.381 365.568 441.106 364.87 441.094 364.143L439.901 281.251C439.897 281.016 439.811 280.79 439.658 280.613C439.505 280.435 439.294 280.317 439.063 280.279C438.831 280.241 438.594 280.285 438.392 280.405C438.19 280.524 438.036 280.711 437.958 280.932L429.124 305.865L429.756 352.599C429.767 353.37 429.48 354.116 428.955 354.682C428.429 355.247 427.706 355.588 426.936 355.634L418.624 355.987C417.864 356.03 417.115 355.785 416.529 355.299C415.942 354.814 415.56 354.125 415.46 353.371L411.119 300.503L411.116 300.47L417.703 245.257L467.174 248.835L453.441 365.201C453.354 365.93 453.003 366.602 452.455 367.09C451.906 367.578 451.197 367.848 450.463 367.85C450.345 367.85 450.227 367.843 450.11 367.829Z" fill="#2F2E41"/>
<path d="M417.914 250.152C417.47 249.915 417.093 249.569 416.819 249.148C416.544 248.726 416.381 248.242 416.344 247.74C416.344 247.74 420.793 220.083 422.423 219.565L418.856 189.989C418.429 186.382 418.727 182.726 419.732 179.235C420.738 175.744 422.431 172.49 424.711 169.662C426.908 166.919 429.638 164.649 432.736 162.99C435.834 161.33 439.237 160.316 442.738 160.007C443.237 159.962 443.733 159.928 444.226 159.904C448.447 159.678 452.66 160.475 456.507 162.225C460.354 163.976 463.721 166.629 466.322 169.959C469.021 173.318 470.868 177.279 471.706 181.505C472.544 185.73 472.349 190.096 471.137 194.23L469.136 201.19V249.827C469.134 250.302 469.021 250.769 468.805 251.192C468.59 251.615 468.278 251.982 467.895 252.263C461.665 256.833 454.626 258.449 447.785 258.449C434.84 258.449 422.605 252.662 417.914 250.152Z" fill="#21273D"/>
<path d="M379.509 241.251L370.905 234.819C370.567 234.567 370.286 234.247 370.081 233.879C369.876 233.511 369.75 233.104 369.713 232.684C369.675 232.264 369.726 231.842 369.863 231.443C370 231.045 370.219 230.679 370.507 230.371L421.765 175.388C423.41 173.639 425.629 172.537 428.018 172.283C430.406 172.029 432.807 172.64 434.783 174.005L434.784 174.005C435.988 174.844 436.992 175.939 437.725 177.21C438.459 178.482 438.902 179.899 439.025 181.362C439.147 182.825 438.946 184.296 438.435 185.672C437.924 187.048 437.115 188.294 436.068 189.322L383.408 240.99C382.945 241.448 382.345 241.743 381.7 241.828C381.054 241.913 380.398 241.785 379.832 241.462C379.72 241.399 379.612 241.328 379.509 241.251Z" fill="#21273D"/>
<path d="M445.363 233.971C445.739 233.066 446.309 232.255 447.033 231.594C447.756 230.933 448.616 230.438 449.552 230.146C450.488 229.853 451.476 229.769 452.448 229.899C453.419 230.029 454.351 230.371 455.176 230.9L473.906 216.171L474.94 228.508L456.994 240.603C456.013 241.93 454.58 242.852 452.965 243.192C451.35 243.533 449.666 243.27 448.232 242.452C446.798 241.635 445.714 240.32 445.185 238.757C444.656 237.194 444.72 235.491 445.363 233.971Z" fill="#FFB8B8"/>
<path d="M462.127 239.721C461.632 239.567 461.185 239.287 460.831 238.907C460.477 238.527 460.229 238.061 460.111 237.555L458.219 229.611C458.081 229.048 458.111 228.455 458.307 227.908C458.502 227.362 458.855 226.885 459.32 226.537L472.05 212.774L453.325 183.91C451.908 182.165 451.109 180 451.053 177.753C450.997 175.507 451.688 173.305 453.017 171.492C454.076 170.048 455.499 168.909 457.14 168.191C458.782 167.474 460.584 167.202 462.364 167.405C464.144 167.608 465.839 168.277 467.277 169.345C468.715 170.414 469.845 171.843 470.552 173.488L487.96 207.362C489.691 210.728 490.123 214.612 489.173 218.275C488.224 221.938 485.959 225.124 482.811 227.225L465.021 239.106C464.477 239.593 463.771 239.863 463.04 239.863C462.731 239.863 462.423 239.815 462.127 239.721Z" fill="#21273D"/>
<path d="M459.14 154.172C458.754 154.403 458.32 154.543 457.871 154.58C457.423 154.617 456.972 154.55 456.553 154.385C456.134 154.219 455.759 153.96 455.457 153.627C455.155 153.293 454.933 152.895 454.81 152.462L454.8 152.421C454.466 151.059 454.729 149.633 454.816 148.233C454.902 146.833 454.756 145.296 453.798 144.272C452.01 142.364 448.853 143.398 446.281 142.926C444.774 142.598 443.438 141.733 442.523 140.491C441.608 139.25 441.177 137.718 441.311 136.182C441.346 135.891 441.402 135.599 441.464 135.308C441.621 134.569 441.605 133.805 441.416 133.074C441.228 132.343 440.872 131.666 440.378 131.096C439.884 130.525 439.264 130.077 438.567 129.787C437.87 129.496 437.116 129.371 436.362 129.421C433.766 129.583 430.967 130.385 428.807 128.473C428.016 127.719 427.463 126.748 427.22 125.682C426.976 124.616 427.052 123.502 427.438 122.479C428.646 118.932 432.104 117.06 435.531 116.023C439.768 114.774 444.231 114.485 448.595 115.177C452.958 115.869 457.113 117.524 460.756 120.022C462.932 121.538 464.967 123.446 465.904 125.926C466.841 128.406 466.412 131.544 464.337 133.196C465.961 134.896 467.11 136.993 467.668 139.277C468.225 141.561 468.173 143.952 467.515 146.209C466.504 149.529 461.61 152.733 459.14 154.172Z" fill="#2F2E41"/>
<path d="M562 381.333C561.999 381.51 561.929 381.679 561.804 381.804C561.679 381.929 561.51 381.999 561.333 382H307.252C307.075 382 306.905 381.93 306.78 381.805C306.655 381.68 306.585 381.51 306.585 381.333C306.585 381.156 306.655 380.987 306.78 380.862C306.905 380.737 307.075 380.667 307.252 380.667H561.333C561.51 380.667 561.679 380.738 561.804 380.862C561.929 380.987 561.999 381.157 562 381.333Z" fill="#3F3D56"/>
</g>
<defs>
<clipPath id="clip0_3_116">
<rect width="562" height="382" fill="white"/>
</clipPath>
</defs>
</svg>
