<svg width="196" height="562" viewBox="0 0 196 562" fill="none" xmlns="http://www.w3.org/2000/svg">
<path d="M130.924 547.01L116.396 547.009L109.485 491.004L130.926 491.005L130.924 547.01Z" fill="#A0616A"/>
<path d="M134.629 542.269L106.019 542.268H106.018C101.182 542.268 96.5449 544.188 93.1257 547.606C89.7065 551.023 87.7854 555.658 87.785 560.491V561.083L134.628 561.084L134.629 542.269Z" fill="#2F2E41"/>
<path d="M76.4146 547.01L61.8867 547.009L54.9758 491.004L76.417 491.005L76.4146 547.01Z" fill="#A0616A"/>
<path d="M80.12 542.269L51.5096 542.268H51.5085C46.6729 542.268 42.0355 544.188 38.6163 547.606C35.197 551.023 33.276 555.658 33.2756 560.491V561.083L80.1191 561.084L80.12 542.269Z" fill="#2F2E41"/>
<path d="M175.005 325.707C173.816 324.434 172.92 322.917 172.382 321.261C171.843 319.605 171.674 317.852 171.887 316.124C172.1 314.396 172.689 312.735 173.613 311.259C174.538 309.784 175.774 308.528 177.237 307.582L167.143 266.48L187.871 273.862L194.278 311.761C195.706 314.322 196.145 317.317 195.511 320.179C194.877 323.041 193.215 325.571 190.839 327.29C188.463 329.009 185.539 329.797 182.621 329.506C179.703 329.214 176.993 327.862 175.005 325.707V325.707Z" fill="#9E616A"/>
<path d="M20.7893 322.154C21.9783 320.881 22.8737 319.364 23.4124 317.708C23.9511 316.052 24.12 314.299 23.9073 312.571C23.6945 310.843 23.1052 309.182 22.181 307.706C21.2567 306.231 20.0198 304.975 18.5576 304.029L28.6516 262.927L7.92336 270.309L1.51587 308.208C0.0879097 310.769 -0.350703 313.764 0.283149 316.626C0.917002 319.488 2.57929 322.018 4.955 323.737C7.33071 325.456 10.2548 326.244 13.1732 325.953C16.0915 325.661 18.8014 324.309 20.7893 322.154V322.154Z" fill="#9E616A"/>
<path d="M155.89 296.896L135.754 532.656L106.29 529.971L94.4987 347.761L84.002 419.908L81.8999 534.512L55.2376 532.735L40.4324 409.446L44.0644 290.044L145.282 279.8L155.89 296.896Z" fill="#2F2E41"/>
<path d="M100.498 82.3589C83.6227 82.3589 69.9424 68.6861 69.9424 51.8198C69.9424 34.9536 83.6227 21.2808 100.498 21.2808C117.374 21.2808 131.054 34.9536 131.054 51.8198C131.054 68.6861 117.374 82.3589 100.498 82.3589Z" fill="#A0616A"/>
<path d="M110.174 27.3886C110.174 27.3886 95.9148 31.2059 88.5305 32.7329C81.1462 34.2599 81.9101 29.9335 81.9101 29.9335C81.9101 29.9335 72.234 31.2059 72.7433 30.188C73.2526 29.17 68.6692 23.8257 74.0165 17.7179C79.3637 11.61 77.8359 7.02923 77.8359 7.02923H82.4193L83.6925 5.24777H90.8222C90.8222 5.24777 98.7048 -1.66047 112.71 0.375404C126.714 2.41128 143.276 7.79268 144.804 16.1909C145.011 17.3301 145.284 18.5956 145.601 19.9323C149.43 36.0909 141.294 51.2098 132.854 65.5139C130.78 69.0293 120.748 76.695 121.004 71.4356C121.261 66.1763 130.035 54.3647 123.924 53.6012C117.813 52.8378 107.373 37.3138 110.174 27.3886Z" fill="#2F2E41"/>
<path d="M132.294 92.7909H78.4821L40.4326 293.625C40.4326 293.625 73.6049 296.46 92.5647 303.566C111.525 310.672 143.043 287.334 143.043 287.334L132.294 92.7909Z" fill="#6C63FF"/>
<path d="M125.576 115.471V92.7909L131.669 92.7538L176.186 121.042L166.526 276.027C166.526 276.027 155.093 327.733 137.753 327.197C120.412 326.661 107.041 142.333 125.576 115.471Z" fill="#2F2E41"/>
<path d="M161.886 125.323L176.186 121.042C176.186 121.042 186.771 124.139 186.771 134.798C186.771 145.457 195.892 296.896 195.892 296.896L166.918 299.455L160.701 222.439L161.886 125.323Z" fill="#2F2E41"/>
<path d="M82.4923 107.558L85.3425 92.7909L77.1598 91.5694L47.5351 103.413C47.5351 103.413 20.8729 298.236 32.7228 304.158C44.5727 310.08 52.5737 305.492 52.5737 305.492C52.5737 305.492 91.5494 161.801 84.6508 142.378L82.4923 107.558Z" fill="#2F2E41"/>
<path d="M68.2724 106.374L63.2166 104.174C63.2166 104.174 48.3769 96.8246 39.9573 111.666C31.5378 126.507 1.91311 292.315 1.91311 292.315L26.2886 296.896L44.512 237.224L68.2724 106.374Z" fill="#2F2E41"/>
</svg>
