<svg width="182" height="461" viewBox="0 0 182 461" fill="none" xmlns="http://www.w3.org/2000/svg">
<path d="M103.775 445.916L88.5458 445.915L81.3018 387.178L103.777 387.179L103.775 445.916Z" fill="#FFB7B7"/>
<path d="M107.658 460.678L58.5557 460.676V460.055C58.556 454.986 60.5697 450.126 64.1539 446.541C67.738 442.957 72.599 440.944 77.6677 440.943H77.6689L107.659 440.945L107.658 460.678Z" fill="#21273D"/>
<path d="M47.8788 445.916L32.6508 445.915L25.4058 387.178L47.8818 387.179L47.8788 445.916Z" fill="#FFB7B7"/>
<path d="M51.7624 460.678L2.66016 460.676V460.055C2.66051 454.986 4.67423 450.126 8.25836 446.541C11.8425 442.957 16.7035 440.944 21.7722 440.943H21.7734L51.7634 440.945L51.7624 460.678Z" fill="#21273D"/>
<path d="M19.1762 255.399C20.4951 254.322 21.5618 252.969 22.3012 251.435C23.0406 249.901 23.4346 248.224 23.4557 246.522C23.4767 244.819 23.1241 243.132 22.4228 241.581C21.7215 240.029 20.6885 238.65 19.3966 237.541L27.6737 212.244L13.5279 203.465L2.34073 239.353C0.621083 241.647 -0.197426 244.492 0.0403754 247.348C0.278177 250.205 1.55574 252.876 3.63095 254.854C5.70616 256.832 8.43486 257.98 11.3 258.08C14.1651 258.181 16.9675 257.227 19.1762 255.399V255.399Z" fill="#FFB7B7"/>
<path d="M34.2663 238.7C34.2663 238.7 20.0524 315.641 20.2297 330.576C20.4436 348.598 28.4628 425.839 28.4628 425.839L48.8798 420.735L52.7389 331.209L68.8865 274.071L75.0972 347.356L81.3315 424.446H105.017L110.322 231.043L32.9902 228.491L34.2663 238.7Z" fill="#21273D"/>
<path d="M105.087 83.6588L64.2535 84.9348L38.7324 243.166C38.7324 243.166 92.9648 268.049 115.934 250.184C138.903 232.319 105.087 83.6588 105.087 83.6588Z" fill="#CBCBCB"/>
<path d="M69.9959 117.474L35.5424 315.263L13.8494 308.883L29.162 237.424L36.8184 165.964L35.5424 94.5053L62.3395 83.0208L69.9959 74.0884C69.9959 74.0884 85.3086 93.2292 69.9959 117.474Z" fill="#21273D"/>
<path d="M87.8606 112.646L90.4127 320.367L142.731 311.435L138.903 118.75L144.007 91.9532L118.486 80.4687L108.152 74.0884C108.152 74.0884 85.3085 81.0213 87.8606 112.646Z" fill="#21273D"/>
<path d="M47.0267 98.3334L35.5428 94.5054L18.9537 168.516L4.91675 227.215L25.3337 231.043L44.4747 167.24L47.0267 98.3334Z" fill="#21273D"/>
<path d="M162.071 267.821C160.752 266.744 159.686 265.39 158.946 263.857C158.207 262.323 157.813 260.645 157.792 258.943C157.771 257.24 158.123 255.554 158.825 254.002C159.526 252.45 160.559 251.071 161.851 249.962L153.574 224.666L167.72 215.886L178.907 251.774C180.626 254.068 181.445 256.913 181.207 259.77C180.969 262.627 179.692 265.297 177.616 267.275C175.541 269.253 172.813 270.401 169.948 270.502C167.082 270.602 164.28 269.648 162.071 267.821V267.821Z" fill="#FFB7B7"/>
<path d="M132.979 95.8494L144.463 92.0214L161.052 166.032L176.331 239.636L153.351 243.017L135.531 164.756L132.979 95.8494Z" fill="#21273D"/>
<path d="M101.077 63.6518C114.822 56.1384 119.873 38.9055 112.36 25.161C104.846 11.4166 87.6134 6.36533 73.8689 13.8787C60.1245 21.3921 55.0732 38.625 62.5866 52.3695C70.1 66.1139 87.3329 71.1652 101.077 63.6518Z" fill="#FFB7B7"/>
<path d="M77.5833 1.6521C104.697 -6.16668 112.393 16.3057 112.393 16.3057C125.462 24.9763 117.28 35.847 117.28 35.847C120.577 36.5796 113.984 55.8775 111.785 55.3892C110.612 55.1285 107.595 58.7294 105.037 62.1444C104.16 62.1432 103.284 62.2274 102.423 62.3956L107.387 44.0308C107.387 44.0308 90.6546 41.4673 85.5244 33.4067C80.6161 25.695 64.4583 23.2603 59.86 28.4114C59.5881 26.9303 59.0312 25.5162 58.2201 24.2475C57.5922 23.2837 56.7712 22.4607 55.8091 21.8303C59.8746 4.55288 77.5833 1.6521 77.5833 1.6521Z" fill="#21273D"/>
</svg>
